<svg id="fafa" data-name="ShellBin logo" xmlns="http://www.w3.org/2000/svg" viewBox="0 0 343.05 320.19"><defs><style>.cls-1{fill:#ff579a;}</style></defs><path class="cls-1" d="M150.23,328.85a5.22,5.22,0,0,0-1.92,4.14c-.74,6.89-1.49,13.79-2,20.7q-2.53,32-2.08,64.08a73,73,0,0,0,1.44,12.77c5.1,26.39,16.29,50.47,28.84,74a32.68,32.68,0,0,0,10,10.88c16.46,12,35.55,15.45,55.13,16.69a162.32,162.32,0,0,0,29.3-.71,228.32,228.32,0,0,0,39.66-7.83c3-.9,4.12-1.4,1.58-4.37-10.33-12.07-20.44-24.33-30.66-36.5-11.28-13.43-22.62-26.81-33.89-40.25s-22.5-26.91-33.76-40.35q-17.37-20.74-34.78-41.45C168.17,350,159.2,339.47,150.23,328.85ZM270.8,422.53l1-.23c22.26-5.21,44.52-10.46,66.82-15.54,2.89-.66,4.17-2.34,5.08-4.78q17.07-46.22,34.22-92.39c1.17-3.15.47-4.59-2.78-5.07-17.9-2.65-35.8-5.28-53.69-8-18.37-2.82-36.72-5.76-55.08-8.7-2.6-.42-4.67-.39-6.44,2.18q-22.13,32-44.47,63.89c-1.28,1.83-1.54,3.16.17,5.15,7.33,8.53,14.39,17.29,21.58,25.95q15.06,18.14,30.15,36.25A3.44,3.44,0,0,0,270.8,422.53Zm124.85,74.85c3.86.37,7.6-.73,11.39-.91,25.32-1.16,44.23-13.31,57.81-34.1,11.91-18.24,18.48-38.59,21.75-60,1.26-8.3,1-8.41-7.21-6.28q-46.12,12-92.24,24Q332.93,434.3,278.72,448.6c-1.26.34-3.5-.27-3.63,1.8-.1,1.73,1.9,2.12,3.11,2.86,9.33,5.68,18.71,11.27,28,16.95,7.62,4.65,14.72,10.46,22.84,13.86C350.27,493,372.76,496.48,395.65,497.38ZM166,289.93c-.25,2.44.76,6.81,1.75,11.14,4.07,17.72,13.82,32.32,25.33,46,1.56,1.85,2.73,2.2,4.08-.15a32.45,32.45,0,0,1,2.43-3.13q29.65-39.36,59.31-78.72,17.31-22.95,34.69-45.84c3.24-4.29,3.08-4.53-2.2-5.46-14.53-2.56-29-1.66-43.25,1.58-23.33,5.28-43.83,16.18-62,31.71C173.62,257.79,166.44,271.1,166,289.93ZM469.43,309c.94-7.67-.7-14.06-3.17-20.24-6.85-17.13-18.36-31.24-29.54-45.59-2.93-3.77-4-2.89-5.57.89-6.23,14.75-12.65,29.42-19,44.11Q387.82,344,363.56,399.9c-1,2.31-3.88,5.15-2.21,7s4.85-.63,7.25-1.38c10.22-3.21,20.29-6.9,30.51-10.1,16.21-5.07,28-16.58,40.28-27.36C457.42,352.21,471.69,334.2,469.43,309ZM327,227.74c-9.92,0-17.81,2.35-24.07,6.31-14,8.86-21.45,22.48-27.17,37.4-1.55,4-.15,5.28,3.73,5.73,7.68.91,15.32,2.08,23,3.25,16.43,2.52,32.84,5.12,49.26,7.66s32.86,5.05,49.27,7.62c1.49.24,3.28.93,4.23-.24s-.37-2.76-1-4C394.69,272.55,382.26,256,365,243.52,352.89,234.83,339.75,228.47,327,227.74Z" transform="translate(-144.11 -212.25)"/><path class="cls-1" d="M150.23,328.85c9,10.62,17.94,21.18,26.85,31.78q17.43,20.7,34.78,41.45,16.89,20.16,33.76,40.35c11.27,13.44,22.61,26.82,33.89,40.25,10.22,12.17,20.33,24.43,30.66,36.5,2.54,3,1.4,3.47-1.58,4.37a228.32,228.32,0,0,1-39.66,7.83,162.32,162.32,0,0,1-29.3.71c-19.58-1.24-38.67-4.74-55.13-16.69a32.68,32.68,0,0,1-10-10.88c-12.55-23.51-23.74-47.59-28.84-74a73,73,0,0,1-1.44-12.77q-.49-32.1,2.08-64.08c.55-6.91,1.3-13.81,2-20.7A5.22,5.22,0,0,1,150.23,328.85Z" transform="translate(-144.11 -212.25)"/><path class="cls-1" d="M270.8,422.53a3.44,3.44,0,0,1-3.4-1.33q-15-18.15-30.15-36.25c-7.19-8.66-14.25-17.42-21.58-25.95-1.71-2-1.45-3.32-.17-5.15Q237.77,321.94,260,290c1.77-2.57,3.84-2.6,6.44-2.18,18.36,2.94,36.71,5.88,55.08,8.7,17.89,2.76,35.79,5.39,53.69,8,3.25.48,3.95,1.92,2.78,5.07Q360.74,355.75,343.74,402c-.91,2.44-2.19,4.12-5.08,4.78-22.3,5.08-44.56,10.33-66.82,15.54Z" transform="translate(-144.11 -212.25)"/><path class="cls-1" d="M395.65,497.38c-22.89-.9-45.38-4.41-66.58-13.31-8.12-3.4-15.22-9.21-22.84-13.86-9.32-5.68-18.7-11.27-28-16.95-1.21-.74-3.21-1.13-3.11-2.86.13-2.07,2.37-1.46,3.63-1.8q54.19-14.33,108.43-28.49,46.11-12.06,92.24-24c8.21-2.13,8.47-2,7.21,6.28-3.27,21.43-9.84,41.78-21.75,60-13.58,20.79-32.49,32.94-57.81,34.1C403.25,496.65,399.51,497.75,395.65,497.38Z" transform="translate(-144.11 -212.25)"/><path class="cls-1" d="M166,289.93c.42-18.83,7.6-32.14,20.18-42.91,18.13-15.53,38.63-26.43,62-31.71,14.29-3.24,28.72-4.14,43.25-1.58,5.28.93,5.44,1.17,2.2,5.46Q276.28,242.13,258.92,265q-29.67,39.35-59.31,78.72a32.45,32.45,0,0,0-2.43,3.13c-1.35,2.35-2.52,2-4.08.15-11.51-13.64-21.26-28.24-25.33-46C166.78,296.74,165.77,292.37,166,289.93Z" transform="translate(-144.11 -212.25)"/><path class="cls-1" d="M469.43,309c2.26,25.21-12,43.22-30,59.1-12.24,10.78-24.07,22.29-40.28,27.36-10.22,3.2-20.29,6.89-30.51,10.1-2.4.75-5.56,3.28-7.25,1.38s1.21-4.72,2.21-7q24.18-55.9,48.56-111.74c6.38-14.69,12.8-29.36,19-44.11,1.59-3.78,2.64-4.66,5.57-.89,11.18,14.35,22.69,28.46,29.54,45.59C468.73,294.93,470.37,301.32,469.43,309Z" transform="translate(-144.11 -212.25)"/><path class="cls-1" d="M327,227.74c12.75.73,25.89,7.09,38,15.78,17.29,12.46,29.72,29,39.23,47.92.64,1.27,2.06,2.75,1,4s-2.74.48-4.23.24c-16.41-2.57-32.84-5.07-49.27-7.62s-32.83-5.14-49.26-7.66c-7.64-1.17-15.28-2.34-23-3.25-3.88-.45-5.28-1.7-3.73-5.73,5.72-14.92,13.13-28.54,27.17-37.4C309.19,230.09,317.08,227.75,327,227.74Z" transform="translate(-144.11 -212.25)"/></svg>