<svg id="ikachan" xmlns="http://www.w3.org/2000/svg" viewBox="0 0 409.4 481.4"><defs><style>.\35 0blue{fill:#7cacdc;}.pink{fill:#ff7bac}</style></defs><path class="50blue" d="M438.3 96l.7.2-5.3 10.1-.7-.2zM442.9 95.9l-2 2.1h-.9l1.4-2.1zM447.7 96.9l-1.2 1.6h-.4l.6-1.3h-.5v-1.5h1.5zM518.7 95.8l.7.6-10.2 10.3-.7-.6zM523.9 106.9v-.6a.8.8 0 0 0 .7-.2c.2-.1.3-.5.3-1.1v-1.8a2.8 2.8 0 0 1 .4-1.6.7.7 0 0 1 .6-.4.7.7 0 0 1-.6-.4 2.8 2.8 0 0 1-.4-1.6v-1.8c0-.6-.1-1-.3-1.1a.8.8 0 0 0-.7-.2v-.6a1.9 1.9 0 0 1 1.2.4 1.6 1.6 0 0 1 .7 1.5v1.8a3.5 3.5 0 0 0 .1 1.2c.1.2.3.3.7.3v1c-.4 0-.6.1-.7.3a3.5 3.5 0 0 0-.1 1.2v1.8a1.6 1.6 0 0 1-.7 1.5 1.9 1.9 0 0 1-1.2.4zM430.8 110.4l.7.2-5.3 10.1-.7-.2zM445.3 109.6h.9v11.9h-.9zM505.1 110.4l.6.2-5.3 10.1-.7-.2zM523.3 112.8l.6-2.5h1.4l-1.4 2.5zM423.7 128.9h-1.5v-1.5h1.5zm0 4.3l-.9 1.7h-.4l.4-1.5h-.6V132h1.5zM445.4 135.9v-11.8h.8v11.8zM496.8 124.8l.7.2-5.3 10.1-.7-.2zM519.3 124.8l.7.2-5.3 10.1-.7-.2zM423.2 141.2H422v-1.1h1.2zm-.1 7.6H422v-6.4h1.1zM445.4 150.3v-11.8h.8v11.8zM488.6 139.2l.6.2-5.3 10.1-.7-.2zM511.1 139.2l.6.2-5.3 10.1-.7-.2zM422.1 164.7v-11.8h.9v11.8zM445.4 164.7v-11.8h.8v11.8zM481.1 153.6l.6.2-5.3 10.1-.7-.2zM503.6 153.6l.6.2-5.3 10.1-.7-.2zM557.7 153.5l-2 2.1h-1l1.4-2.1zM559.8 153.1h11.9v.8h-11.9zM572.7 163.9a8 8 0 0 0 2.2-2.4 4.9 4.9 0 0 0 .7-2.8 5.1 5.1 0 0 0-.7-2.8 9.2 9.2 0 0 0-2.2-2.3l.7-.6a10.7 10.7 0 0 1 2.3 2.6 5.3 5.3 0 0 1 .8 3.1 5.5 5.5 0 0 1-.8 3.2 10.5 10.5 0 0 1-2.3 2.5zM361 178.2h12v.8h-12zM373 178.1h3.7v.8H373zM376.8 178.1h3.6v.8h-3.6zM422.1 179.1v-11.8h.9v11.8zM445.3 167.2h.9v11.9h-.9zM473.6 168l.6.2-5.3 10.1-.7-.2zM496.1 168l.6.2-5.3 10.1-.7-.2zM532.2 167.8l.7.6-10.2 10.3-.7-.6zM568.9 167.8l.7.6-10.1 10.3-.7-.6zM298.8 192.6h11.9v.8h-11.9zM310.8 192.6h11.9v.8h-11.9zM322.8 192.6h11.9v.8h-11.9zM334.8 192.6h11.9v.8h-11.9zM355.4 192.7l-.7.5a10.5 10.5 0 0 1-2.3-2.5 5.5 5.5 0 0 1-.8-3.2 5.3 5.3 0 0 1 .8-3.1 10.7 10.7 0 0 1 2.3-2.6l.7.6a9.2 9.2 0 0 0-2.2 2.3 5.1 5.1 0 0 0-.7 2.8 4.9 4.9 0 0 0 .7 2.8 8 8 0 0 0 2.2 2.4zM386.2 182.2l10.2 10.3-.7.6-10.2-10.3zM422.1 193.5v-11.8h.9v11.8zM445 183.1h1v7.9h4v1h-5v-8.9zM452.9 192.4h-1.4V191h1.4zM457 192.5h3.7v.8H457zM466.1 182.4l.6.2-5.3 10.1-.7-.2zM488.6 182.4l.6.2-5.3 10.1-.7-.2zM516.4 182.2l.7.6-10.1 10.3-.7-.6zM553.2 182.2l.7.6-10.2 10.3-.7-.6zM268.4 206.5l-1 1.5h-.4l.5-1.2h-.6v-1.4h1.5zM272.6 205.8l-1.2 1.8h-.3l.5-1.5h-.6v-1.4h1.6zM292.9 196.7l-2 2.1h-.9l1.4-2.1zM354.5 196.7h1.6l1.3 2.1h-.9zM360 196.6l10.1 10.3-.7.6-10.1-10.3zM401.7 200.5a25.3 25.3 0 0 1 2.2 2l1.4 1.6 1.2 1.7a4.5 4.5 0 0 0-1 .9l-1.1-2a17.6 17.6 0 0 0-2.1-2.4l-1.2-.9zM422.2 200.9h-1.5v-1.5h1.5zm0 4.3l-.9 1.7h-.4l.4-1.5h-.6V204h1.5zM441 198c0-.2 0-.2.2-.2l1.2.3c.1 0 .1.1 0 .2v.2a29 29 0 0 1-.9 2.8 11 11 0 0 1-2 3.1 12 12 0 0 1-4 2.5 3.9 3.9 0 0 0-.6-1.1 6.9 6.9 0 0 0 3.5-1.8 8.4 8.4 0 0 0 2-2.9 16.4 16.4 0 0 0 .7-2.3zM480.7 200.9h-1.5v-1.5h1.5zm0 4.5h-1.5V204h1.5zM483.9 207.7a2 2 0 0 1-1.3-.4 1.8 1.8 0 0 1-.6-1.5V204a3.5 3.5 0 0 0-.1-1.2c-.1-.2-.4-.3-.8-.3v-1c.4 0 .7-.1.8-.3a3.5 3.5 0 0 0 .1-1.2v-1.8a1.8 1.8 0 0 1 .6-1.5 2 2 0 0 1 1.3-.4v.6a.8.8 0 0 0-.7.2c-.3.1-.4.5-.4 1.1v1.8a3 3 0 0 1-.3 1.6.5.5 0 1 0 0 .8 3 3 0 0 1 .3 1.6v1.8c0 .6.1 1 .4 1.1a.8.8 0 0 0 .7.2zM484 206.9h3.7v.8H484zM489.7 206.5l-1.1 1.5h-.3l.5-1.2h-.6v-1.4h1.5zM500.7 196.6l.7.6-10.2 10.3-.7-.6zM537.4 196.6l.7.6-10.1 10.3-.7-.6zM262.9 211l.7.6-10.1 10.3-.7-.6zM266.2 220.9l-1.1 1.5h-.3l.5-1.2h-.6v-1.4h1.5zM268.4 221.2H267v-1.4h1.4zM281.1 215.6h5.3v.9h-5.3zM287.7 215.9h10v1.1h-10zM299.7 215.9h10v1.1h-10zM311.7 215.9h10v1.1h-10zM323.7 215.9h10v1.1h-10zM335.7 215.9h10v1.1h-10zM347.1 215.6h5.3v.9h-5.3zM362.2 219.7l.6-.9a21.1 21.1 0 0 1 2.3 1.9l-.9.8a5.9 5.9 0 0 0-2-1.8zM374.2 211l10.2 10.3-.7.6-10.2-10.3zM409.6 211.7l.6-.4 4.7 9.4c0 .1.1.1.1 0l4.7-9.4.6.4-4.9 9.8c-.2.3-.3.4-.5.4s-.3-.1-.4-.4zM463.5 216.9a2.2 2.2 0 0 0-.1-.9v-.2h8.8v1.1zM481.2 211.1l-2 2.1h-1l1.4-2.1zM522.4 211l.7.6-10.1 10.3-.7-.6zM247.9 225.4l.7.6-10.1 10.3-.7-.6zM259.9 225.4l.7.6-10.1 10.3-.7-.6zM263.2 229.7h-1.5v-1.5h1.5zm0 4.5h-1.5v-1.4h1.5zM269.2 229.7h-1.5v-1.5h1.5zm0 4.5h-1.5v-1.4h1.5zM275.2 229.7h-1.5v-1.5h1.5zm0 4.5h-1.5v-1.4h1.5zM281.2 229.7h-1.5v-1.5h1.5zm0 4.5h-1.5v-1.4h1.5zM287.2 229.7h-1.5v-1.5h1.5zm0 4.5h-1.5v-1.4h1.5zM293.2 229.7h-1.5v-1.5h1.5zm0 4.5h-1.5v-1.4h1.5zM299.2 229.7h-1.5v-1.5h1.5zm0 4.5h-1.5v-1.4h1.5zM305.2 229.7h-1.5v-1.5h1.5zm0 4.5h-1.5v-1.4h1.5zM311.2 229.7h-1.5v-1.5h1.5zm0 4.5h-1.5v-1.4h1.5zM317.2 229.7h-1.5v-1.5h1.5zm0 4.5h-1.5v-1.4h1.5zM323.2 229.7h-1.5v-1.5h1.5zm0 4.5h-1.5v-1.4h1.5zM329.2 229.7h-1.5v-1.5h1.5zm0 4.5h-1.5v-1.4h1.5zM335.2 229.7h-1.5v-1.5h1.5zm0 4.5h-1.5v-1.4h1.5zM341.2 229.7h-1.5v-1.5h1.5zm0 4.5h-1.5v-1.4h1.5zM347.2 229.7h-1.5v-1.5h1.5zm0 4.5h-1.5v-1.4h1.5zM353.2 229.7h-1.5v-1.5h1.5zm0 4.5h-1.5v-1.4h1.5zM359.2 229.7h-1.5v-1.5h1.5zm0 4.5h-1.5v-1.4h1.5zM365.2 229.7h-1.5v-1.5h1.5zm0 4.5h-1.5v-1.4h1.5zM366.7 225.4l10.2 10.3-.7.6L366 226zM391.4 229.7h-1.5v-1.5h1.5zm0 4.5h-1.5v-1.4h1.5zM393.7 235.6h-1.5v-1.4h1.5zM422.9 234.1l.6-.9a14.5 14.5 0 0 1 2.3 1.9l-.8.8a7.2 7.2 0 0 0-2.1-1.8zM430 235.8h12v.8h-12zM442 235.7h3.7v.8H442zM492.9 226.5v-1.2h1.5v1.5h-.6l.3 1.5h-.4zM495.9 231.3a2.2 2.2 0 0 0-.1-.9v-.2h4.9v1.1zM505.9 225.7h.3l1 .5c.2 0 .2.1 0 .2h-.2a14.1 14.1 0 0 1-2.6 2.8l-1.3 1.3a.2.2 0 0 0 0 .3c0 .1.4.5 1.3 1.2l3.2 2.8a4.7 4.7 0 0 0-.9 1c-1.3-1.5-2.4-2.6-3.3-3.5a6.7 6.7 0 0 1-1.5-1.4c-.1-.2 0-.3 0-.5s.5-.7 1.4-1.5a12.4 12.4 0 0 0 2-2.1q.8-1 .6-1.1zM508 235.8h12v.8h-12zM520 235.8h12v.8h-12zM533.9 235.3l-1 1.5h-.4l.5-1.2h-.6v-1.4h1.5zM536.2 235.3l-1.1 1.5h-.3l.5-1.2h-.6v-1.4h1.5zM538.4 235.6H537v-1.4h1.4zM547.4 230h5.3v.9h-5.3zM553.9 230.3H564v1.1h-10.1zM565.9 230.3H576v1.1h-10.1zM589.1 234.6l-1.2 1.8h-.3l.5-1.5h-.6v-1.4h1.6zM233.7 239.8l.7.6-10.2 10.3-.7-.6zM245.7 239.8l.7.6-10.2 10.3-.7-.6zM248.9 244.1h-1.5v-1.5h1.5zm0 4.5h-1.5v-1.4h1.5zM254.9 244.1h-1.5v-1.5h1.5zm0 4.5h-1.5v-1.4h1.5zM260.9 244.1h-1.5v-1.5h1.5zm0 4.5h-1.5v-1.4h1.5zM266.9 244.1h-1.5v-1.5h1.5zm0 4.5h-1.5v-1.4h1.5zM272.9 244.1h-1.5v-1.5h1.5zm0 4.5h-1.5v-1.4h1.5zM278.9 244.1h-1.5v-1.5h1.5zm0 4.5h-1.5v-1.4h1.5zM284.9 244.1h-1.5v-1.5h1.5zm0 4.5h-1.5v-1.4h1.5zM290.9 244.1h-1.5v-1.5h1.5zm0 4.5h-1.5v-1.4h1.5zM296.9 244.1h-1.5v-1.5h1.5zm0 4.5h-1.5v-1.4h1.5zM302.9 244.1h-1.5v-1.5h1.5zm0 4.5h-1.5v-1.4h1.5zM308.9 244.1h-1.5v-1.5h1.5zm0 4.5h-1.5v-1.4h1.5zM314.9 244.1h-1.5v-1.5h1.5zm0 4.5h-1.5v-1.4h1.5zM320.9 244.1h-1.5v-1.5h1.5zm0 4.5h-1.5v-1.4h1.5zM332 246.4v-6.8c.7.1 1 .3 1 .5l-.2.2v6l3.7-.5v.7l-3.8.6v3.6h-.7v-3.5l-6.5 1v-.8zm-5.5-3l.5-.6a6.8 6.8 0 0 1 1.7 2.1l-.6.5a7.8 7.8 0 0 0-1.6-2zm1.5-2.9l.5-.6a8.7 8.7 0 0 1 1.7 2.2l-.6.5a6.5 6.5 0 0 0-1.6-2.1zM337.4 244.4h5.3v.9h-5.3zM344.2 239.8l10.2 10.3-.7.6-10.2-10.3zM355.4 244.4h5.3v.9h-5.3zM362.9 244.1h-1.5v-1.5h1.5zm0 4.5h-1.5v-1.4h1.5zM368.9 244.1h-1.5v-1.5h1.5zm0 4.5h-1.5v-1.4h1.5zM374.9 244.1h-1.5v-1.5h1.5zm0 4.5h-1.5v-1.4h1.5zM380.2 239.8l10.2 10.3-.7.6-10.2-10.3zM392.1 251.1v-11.8h.9v11.8zM428.2 239.8l10.2 10.3-.7.6-10.2-10.3zM449 239.9h1.6l1.3 2.1h-.9zM454.5 239.8l10.1 10.3-.7.6-10.1-10.3zM584.7 239.8l.7.6-10.2 10.3-.7-.6zM218.6 254.4l.6.2-5.3 10.1-.7-.2zM229.9 254.2l.7.6-10.1 10.3-.7-.6zM233.2 258.5h-1.5V257h1.5zm0 4.5h-1.5v-1.4h1.5zM239.2 258.5h-1.5V257h1.5zm0 4.5h-1.5v-1.4h1.5zM245.2 258.5h-1.5V257h1.5zm0 4.5h-1.5v-1.4h1.5zM251.2 258.5h-1.5V257h1.5zm0 4.5h-1.5v-1.4h1.5zM257.2 258.5h-1.5V257h1.5zm0 4.5h-1.5v-1.4h1.5zM263.2 258.5h-1.5V257h1.5zm0 4.5h-1.5v-1.4h1.5zM269.2 258.5h-1.5V257h1.5zm0 4.5h-1.5v-1.4h1.5zM275.2 258.5h-1.5V257h1.5zm0 4.5h-1.5v-1.4h1.5zM281.2 258.5h-1.5V257h1.5zm0 4.5h-1.5v-1.4h1.5zM287.2 258.5h-1.5V257h1.5zm0 4.5h-1.5v-1.4h1.5zM293.2 258.5h-1.5V257h1.5zm0 4.5h-1.5v-1.4h1.5zM299.2 258.5h-1.5V257h1.5zm0 4.5h-1.5v-1.4h1.5zM305.2 258.5h-1.5V257h1.5zm0 4.5h-1.5v-1.4h1.5zM311.2 258.5h-1.5V257h1.5zm0 4.5h-1.5v-1.4h1.5zM317.2 258.5h-1.5V257h1.5zm0 4.5h-1.5v-1.4h1.5zM323.2 258.5h-1.5V257h1.5zm0 4.5h-1.5v-1.4h1.5zM331.1 255.6c.7.1 1 .3 1 .4s-.1.2-.3.2a19.9 19.9 0 0 1-3.7 9.1l-.8-.3a18.2 18.2 0 0 0 3.8-9.4zm1.4-.3v-.8h2.2a18.8 18.8 0 0 0 4.2 10l-.7.3a19.2 19.2 0 0 1-4.2-9.5zM341.2 258.5h-1.5V257h1.5zm0 4.5h-1.5v-1.4h1.5zM347.2 258.5h-1.5V257h1.5zm0 4.5h-1.5v-1.4h1.5zM353.2 258.5h-1.5V257h1.5zm0 4.5h-1.5v-1.4h1.5zM354.6 265.5v-11.8h.9v11.8zM362.2 258.5h-1.5V257h1.5zm0 4.5h-1.5v-1.4h1.5zM368.2 258.5h-1.5V257h1.5zm0 4.5h-1.5v-1.4h1.5zM374.2 258.5h-1.5V257h1.5zm0 4.5h-1.5v-1.4h1.5zM380.2 258.5h-1.5V257h1.5zm0 4.5h-1.5v-1.4h1.5zM389.6 254.4l.6.2-5.3 10.1-.7-.2zM395.2 262.9l.6-.9a21.1 21.1 0 0 1 2.3 1.9l-.9.8a5.9 5.9 0 0 0-2-1.8zM444.5 258.1l2.1 2a10.7 10.7 0 0 1 1.4 1.6l1.2 1.7-1 .9a9.5 9.5 0 0 0-1.1-2 24.9 24.9 0 0 0-2-2.4l-1.3-.9zM470 258.1l2.1 2a10.7 10.7 0 0 1 1.4 1.6l1.2 1.7-1 .9a9.5 9.5 0 0 0-1.1-2 24.9 24.9 0 0 0-2-2.4l-1.3-.9zM511.4 264.1l-1 1.5h-.4l.5-1.2h-.6V263h1.5zM515.6 263.4l-1.2 1.8h-.3l.5-1.5h-.6v-1.4h1.6zM524.1 258.8h5.3v.9h-5.3zM530.1 258.8h5.3v.9h-5.3zM536.1 258.8h5.3v.9h-5.3zM542.1 258.8h5.3v.9h-5.3zM548.5 259.1h4.6v1.1h-4.6zM569.7 254.3l-2 2.1h-1l1.4-2.1zM211.1 268.8l.6.2-5.3 10.1-.7-.2zM217.1 268.8l.6.2-5.3 10.1-.7-.2zM223.4 272.9h-1.5v-1.5h1.5zm0 4.5h-1.5V276h1.5zM229.4 272.9h-1.5v-1.5h1.5zm0 4.5h-1.5V276h1.5zM235.4 272.9h-1.5v-1.5h1.5zm0 4.5h-1.5V276h1.5zM241.4 272.9h-1.5v-1.5h1.5zm0 4.5h-1.5V276h1.5zM247.4 272.9h-1.5v-1.5h1.5zm0 4.5h-1.5V276h1.5zM253.4 272.9h-1.5v-1.5h1.5zm0 4.5h-1.5V276h1.5zM259.4 272.9h-1.5v-1.5h1.5zm0 4.5h-1.5V276h1.5zM264.6 279.9v-11.8h.9v11.8zM268.4 278.5l-1 1.5h-.4l.5-1.2h-.6v-1.4h1.5zM274.7 278.4h-1.3l-1.8-2.6-1.5 2.6h-1.2l2.1-3.4-2-3h1.3l1.6 2.4 1.3-2.4h1.2l-1.9 3.3zM276.6 272.9h-1.4v-1.5h1.4zm0 4.5h-1.4V276h1.4zM277.7 273.5h4.6v1.1h-4.6zM284.9 272.9h-1.5v-1.5h1.5zm0 4.5h-1.5V276h1.5zM290.9 272.9h-1.5v-1.5h1.5zm0 4.5h-1.5V276h1.5zM296.9 272.9h-1.5v-1.5h1.5zm0 4.5h-1.5V276h1.5zM302.9 272.9h-1.5v-1.5h1.5zm0 4.5h-1.5V276h1.5zM308.9 272.9h-1.5v-1.5h1.5zm0 4.5h-1.5V276h1.5zM314.9 272.9h-1.5v-1.5h1.5zm0 4.5h-1.5V276h1.5zM324.3 268.8l.7.2-5.4 10.1-.6-.2zM342.7 268.6l10.2 10.3-.7.6-10.2-10.3zM354.6 279.9v-11.8h.9v11.8zM357.7 268.6l10.2 10.3-.7.6-10.2-10.3zM370.4 272.9h-1.5v-1.5h1.5zm0 4.5h-1.5V276h1.5zM376.4 272.9h-1.5v-1.5h1.5zm0 4.5h-1.5V276h1.5zM382.4 272.9h-1.5v-1.5h1.5zm0 4.5h-1.5V276h1.5zM383.9 279.9v-11.8h.8v11.8zM394.1 279.7v-.6a1.2 1.2 0 0 0 .8-.2c.2-.1.3-.5.3-1.1V276a3 3 0 0 1 .3-1.6.5.5 0 1 0 0-.8 3 3 0 0 1-.3-1.6v-1.8c0-.6-.1-1-.3-1.1a1.2 1.2 0 0 0-.8-.2v-.6a2 2 0 0 1 1.3.4 1.8 1.8 0 0 1 .6 1.5v1.8a3.5 3.5 0 0 0 .1 1.2c.1.2.4.3.8.3v1c-.4 0-.7.1-.8.3a3.5 3.5 0 0 0-.1 1.2v1.8a1.8 1.8 0 0 1-.6 1.5 2 2 0 0 1-1.3.4zM398.9 272.9h-1.5v-1.5h1.5zm0 4.5h-1.5V276h1.5zM400.5 268.6l10.1 10.3-.7.6-10.1-10.3zM505.9 268.6l.7.6-10.1 10.3-.7-.6zM203.2 282.6l.8.5a57.2 57.2 0 0 1-4.5 5.3 57.2 57.2 0 0 1 4.5 5.3l-.8.4a61.9 61.9 0 0 0-4.7-5.5.5.5 0 0 1 0-.5 51.5 51.5 0 0 0 4.7-5.5zM209.6 283.2l.6.2-5.3 10.1-.7-.2zM215.9 287.3h-1.5v-1.5h1.5zm0 4.5h-1.5v-1.4h1.5zM221.9 287.3h-1.5v-1.5h1.5zm0 4.5h-1.5v-1.4h1.5zM227.9 287.3h-1.5v-1.5h1.5zm0 4.5h-1.5v-1.4h1.5zM233.9 287.3h-1.5v-1.5h1.5zm0 4.5h-1.5v-1.4h1.5zM239.9 287.3h-1.5v-1.5h1.5zm0 4.5h-1.5v-1.4h1.5zM245.9 287.3h-1.5v-1.5h1.5zm0 4.5h-1.5v-1.4h1.5zM251.9 287.3h-1.5v-1.5h1.5zm0 4.5h-1.5v-1.4h1.5zM253.4 294.3v-11.8h.8v11.8zM257.2 287.3h-1.5v-1.5h1.5zm0 4.5h-1.5v-1.4h1.5zM262.8 283.2l.7.2-5.3 10.1-.7-.2zM264.6 294.3v-11.8h.9v11.8zM279.7 283l10.2 10.3-.7.6-10.2-10.3zM296.2 287.3h-1.5v-1.5h1.5zm0 4.5h-1.5v-1.4h1.5zM302.2 287.3h-1.5v-1.5h1.5zm0 4.5h-1.5v-1.4h1.5zM308.2 287.3h-1.5v-1.5h1.5zm0 4.5h-1.5v-1.4h1.5zM317.6 283.2l.6.2-5.3 10.1-.7-.2zM374 286.9l2.1 2 1.4 1.6 1.2 1.7-1 .9a9.5 9.5 0 0 0-1.1-2 24.9 24.9 0 0 0-2-2.4l-1.3-.9zM382.4 287.3h-1.5v-1.5h1.5zm0 4.5h-1.5v-1.4h1.5zM383.9 294.3v-11.8h.8v11.8zM392.2 284.4c0-.2.1-.2.2-.2l1.3.3c.1 0 .1.1 0 .2l-.2.2a9.9 9.9 0 0 1-.9 2.8 9.2 9.2 0 0 1-2 3.1 11 11 0 0 1-4 2.5 2.4 2.4 0 0 0-.6-1.1 6.5 6.5 0 0 0 3.5-1.8 7.2 7.2 0 0 0 2-2.9 6.1 6.1 0 0 0 .7-2.3c.1-.5.1-.7 0-.8zM394.4 289.6a3.1 3.1 0 0 1 .7-2.1 2.3 2.3 0 0 1 1.9-1 2.3 2.3 0 0 1 2 1 3.2 3.2 0 0 1 .7 2.2 3.4 3.4 0 0 1-.7 2.2 2.3 2.3 0 0 1-2 1 2.3 2.3 0 0 1-1.9-1 3.5 3.5 0 0 1-.7-2.3zm1 .1a2.9 2.9 0 0 0 .5 1.7 1.8 1.8 0 0 0 1.1.5 2.1 2.1 0 0 0 1.2-.5 3 3 0 0 0 .5-1.8 2.5 2.5 0 0 0-.5-1.6 1.6 1.6 0 0 0-1.2-.5 1.4 1.4 0 0 0-1.1.5 2.6 2.6 0 0 0-.5 1.7zM401.9 287.3h-1.5v-1.5h1.5zm0 4.5h-1.5v-1.4h1.5zM404.2 293.2h-1.5v-1.4h1.5zM406.4 287.3h-1.5v-1.5h1.5zm0 4.5h-1.5v-1.4h1.5zM408.7 293.2h-1.5v-1.4h1.5zM410.9 287.3h-1.5v-1.5h1.5zm0 4.5h-1.5v-1.4h1.5zM414.1 294.1a1.9 1.9 0 0 1-1.2-.4 1.8 1.8 0 0 1-.6-1.5v-1.8a2.9 2.9 0 0 0-.2-1.2c-.1-.2-.3-.3-.7-.3v-1c.4 0 .6-.1.7-.3a2.9 2.9 0 0 0 .2-1.2v-1.8a1.8 1.8 0 0 1 .6-1.5 1.9 1.9 0 0 1 1.2-.4v.6a1 1 0 0 0-.7.2c-.2.1-.3.5-.3 1.1v1.8a3 3 0 0 1-.3 1.6c-.3.3-.5.4-.7.4s.4.1.7.4a3 3 0 0 1 .3 1.6v1.8c0 .6.1 1 .3 1.1a1 1 0 0 0 .7.2zM417.1 284.1v-1.2h1.5v1.5h-.6l.4 1.5h-.4zM420.8 288.9a2.2 2.2 0 0 0-.1-.9v-.2h8.8v1.1zM490.9 283l.7.6-10.1 10.3-.7-.6zM493.4 294.3v-11.8h.8v11.8zM203.1 308.7v-11.8h.9v11.8zM206.9 301.7h-1.5v-1.5h1.5zm0 4.5h-1.5v-1.4h1.5zM212.9 301.7h-1.5v-1.5h1.5zm0 4.5h-1.5v-1.4h1.5zM218.9 301.7h-1.5v-1.5h1.5zm0 4.5h-1.5v-1.4h1.5zM224.9 301.7h-1.5v-1.5h1.5zm0 4.5h-1.5v-1.4h1.5zM230.9 301.7h-1.5v-1.5h1.5zm0 4.5h-1.5v-1.4h1.5zM236.9 301.7h-1.5v-1.5h1.5zm0 4.5h-1.5v-1.4h1.5zM242.9 301.7h-1.5v-1.5h1.5zm0 4.5h-1.5v-1.4h1.5zM248.9 301.7h-1.5v-1.5h1.5zm0 4.5h-1.5v-1.4h1.5zM249.8 307.5l4.9-9.9c.2-.2.3-.3.5-.3a.5.5 0 0 1 .4.3l5 9.9-.7.3-4.7-9.4h-.1l-4.7 9.4zM263.2 301.7h-1.5v-1.5h1.5zm0 4.5h-1.5v-1.4h1.5zM264.6 308.7v-11.8h.9v11.8zM276.7 307.3l-1.1 1.5h-.3l.5-1.2h-.6v-1.4h1.5zM282.9 307.2h-1.3l-1.7-2.6-1.6 2.6h-1.2l2.1-3.4-1.9-3h1.3l1.5 2.4 1.4-2.4h1.2l-1.9 3.3zM284.9 301.7h-1.5v-1.5h1.5zm0 4.5h-1.5v-1.4h1.5zM292.5 298.8l.8.2-1 2.1h3.1v.9h-3.5l-.8 1.7h4.3v.8h-4.6l-1 2.3h-.8l.9-2.2H287v-.8h3.3l.8-1.7H287v-.9h4.4zM297.8 305.5l.3-1.1a37.9 37.9 0 0 1 7.2 2.1l-.7 1.2a21.9 21.9 0 0 0-6.8-2.2zm1.2-3.1l.3-1 5 1.3a4.4 4.4 0 0 0-.6 1 19.5 19.5 0 0 0-4.7-1.3zm.1-3.1l.3-1a38.1 38.1 0 0 1 5.2 1.4l-.5 1.1a22.1 22.1 0 0 0-5-1.5zM310.8 297.6l.7.2-5.4 10.1-.6-.2zM348.2 307.8h12v.8h-12zM360.3 307.7h3.6v.8h-3.6zM381.9 299.6h-1.2v-1.1h1.2zm0 7.6h-1.2v-6.4h1.2zM383.9 308.7v-11.8h.8v11.8zM387.6 301.7h-1.4v-1.5h1.4zm0 4.5h-1.4v-1.4h1.4zM389.9 307.6h-1.5v-1.4h1.5zM392.1 301.7h-1.4v-1.5h1.4zm0 4.5h-1.4v-1.4h1.4zM394.4 307.6h-1.5v-1.4h1.5zM396.6 301.7h-1.4v-1.5h1.4zm0 4.5h-1.4v-1.4h1.4zM398.9 307.6h-1.5v-1.4h1.5zM401.1 301.7h-1.4v-1.5h1.4zm0 4.5h-1.4v-1.4h1.4zM403.4 307.6h-1.5v-1.4h1.5zM405.6 301.7h-1.4v-1.5h1.4zm0 4.5h-1.4v-1.4h1.4zM407.9 307.6h-1.5v-1.4h1.5zM410.1 301.7h-1.4v-1.5h1.4zm0 4.5h-1.4v-1.4h1.4zM412.4 307.6h-1.5v-1.4h1.5zM414.6 301.7h-1.4v-1.5h1.4zm0 4.5h-1.4v-1.4h1.4zM416.2 297.4l10.2 10.3-.7.6-10.2-10.3zM427 307.8h11.9v.8H427zM439 307.7h3.7v.8H439zM442.8 307.7h3.6v.8h-3.6zM447.8 297.5l9.8 4.9c.3.1.5.3.5.5s-.2.3-.5.4l-9.8 4.9-.3-.6 9.4-4.7-9.4-4.8zM459.4 303.2v-.8h10.2v.8zM472.4 301.7h-1.5v-1.5h1.5zm0 4.5h-1.5v-1.4h1.5zM476.7 297.5l-2.1 2.1h-.9l1.4-2.1zM480.7 307.6h-1.5v-1.4h1.5zM482.9 301.7h-1.5v-1.5h1.5zm0 4.5h-1.5v-1.4h1.5zM485.2 307.6h-1.5v-1.4h1.5zM487.4 301.7h-1.5v-1.5h1.5zm0 4.5h-1.5v-1.4h1.5zM489.7 307.6h-1.5v-1.4h1.5zM491.9 301.7h-1.5v-1.5h1.5zm0 4.5h-1.5v-1.4h1.5zM493.4 308.7v-11.8h.8v11.8zM495.2 307.8h12v.8h-12zM507.2 307.8h12v.8h-12zM203.1 323.1v-11.8h.9v11.8zM210.7 316.1h-1.5v-1.5h1.5zm0 4.5h-1.5v-1.4h1.5zM216.7 316.1h-1.5v-1.5h1.5zm0 4.5h-1.5v-1.4h1.5zM222.7 316.1h-1.5v-1.5h1.5zm0 4.5h-1.5v-1.4h1.5zM228.7 316.1h-1.5v-1.5h1.5zm0 4.5h-1.5v-1.4h1.5zM234.7 316.1h-1.5v-1.5h1.5zm0 4.5h-1.5v-1.4h1.5zM240.7 316.1h-1.5v-1.5h1.5zm0 4.5h-1.5v-1.4h1.5zM246.7 316.1h-1.5v-1.5h1.5zm0 4.5h-1.5v-1.4h1.5zM252.7 316.1h-1.5v-1.5h1.5zm0 4.5h-1.5v-1.4h1.5zM258.7 316.1h-1.5v-1.5h1.5zm0 4.3l-.9 1.7h-.4l.4-1.5h-.6v-1.4h1.5zM261.1 314.5c0-.1.1-.1.2-.1l.8.2c.1 0 .1 0 0 .1h-.1a22.7 22.7 0 0 1-.5 3.4 25.3 25.3 0 0 1-1.1 3.3l-.8-.7a10.5 10.5 0 0 0 1-2.8c.2-.9.4-1.6.5-2.3s.1-1 0-1.1zm1.7 0l.7-.4c.4 1 .8 2 1.1 2.9a31.7 31.7 0 0 1 1.1 3.3v.2l-1 .4a21.4 21.4 0 0 0-.8-3.4c-.3-1-.7-2-1.1-3zM270.7 315h1.6l-2.3 4.6h-.9zm2.6 4.6h-.9l1.3-4.6h1.6zM287.3 312.3l1.1.5c.1 0 .1.1 0 .2h-.2c-.8 1.7-1.5 3.2-2.1 4.3l1.3-.7h.8l.5.4a6.3 6.3 0 0 1 .3 1.3 6.3 6.3 0 0 0 .2 1.6c.1.5.3.7.7.7a1.2 1.2 0 0 0 .9-.6 4.8 4.8 0 0 0 .8-1.6 9 9 0 0 0 .3-1.2h.1l1 .8a8.2 8.2 0 0 1-.4 1.1l-1 1.7a1.8 1.8 0 0 1-1.6.9 2.3 2.3 0 0 1-1.3-.3 3.3 3.3 0 0 1-.5-1.2c-.1-.5-.1-1-.2-1.6a1.9 1.9 0 0 0-.2-1 .5.5 0 0 0-.6-.1 2.4 2.4 0 0 0-.9.6 3.9 3.9 0 0 0-1 .8l-.7 1.5-.8 1.5-1-.7a53.3 53.3 0 0 0 3.1-5.7l1.2-3c-.1-.2 0-.2.2-.2zM297.5 314.9h.1l.8.3h.1l-.2.2a7.1 7.1 0 0 1-.7 1.5 2.8 2.8 0 0 1-.5.8h.2a.1.1 0 0 1 .1.1v4.6h-.8v-3.9a13.5 13.5 0 0 1-1.7 1.7l-.6-.7a4.7 4.7 0 0 0 1.5-1.3 7.2 7.2 0 0 0 1.1-1.5l.6-1.1a1.8 1.8 0 0 0 0-.7zM301.6 314.5c0-.1.1-.1.2-.1l.8.2c.1 0 .1 0 0 .1h-.1a22.7 22.7 0 0 1-.5 3.4 25.3 25.3 0 0 1-1.1 3.3l-.8-.7a10.5 10.5 0 0 0 1-2.8c.2-.9.4-1.6.5-2.3s.1-1 0-1.1zm1.7 0l.7-.4c.4 1 .8 2 1.1 2.9a31.7 31.7 0 0 1 1.1 3.3v.2l-1 .4a21.4 21.4 0 0 0-.8-3.4c-.3-1-.7-2-1.1-3zM343.5 315h1.5l-2.3 4.6h-.8zm2.5 4.6h-.8l1.3-4.6h1.5zM351.3 311.5h11.9v.8h-11.9zM365 311.9h1.6l1.3 2.1h-.9zM371.7 315.7a25.3 25.3 0 0 1 2.2 2l1.4 1.6 1.2 1.7a4.5 4.5 0 0 0-1 .9l-1.1-2a17.6 17.6 0 0 0-2.1-2.4l-1.2-.9zM382.1 313.2c.7.1 1 .3 1 .4s-.1.2-.3.2a19.9 19.9 0 0 1-3.7 9.1l-.8-.3a18.2 18.2 0 0 0 3.8-9.4zm1.4-.3v-.8h2.2a18.8 18.8 0 0 0 4.2 10l-.7.3a19.2 19.2 0 0 1-4.2-9.5zM392.2 316.1h-1.5v-1.5h1.5zm0 4.5h-1.5v-1.4h1.5zM394.4 322H393v-1.4h1.4zM396.7 316.1h-1.5v-1.5h1.5zm0 4.5h-1.5v-1.4h1.5zM398.9 322h-1.4v-1.4h1.4zM401.2 316.1h-1.5v-1.5h1.5zm0 4.5h-1.5v-1.4h1.5zM403.4 322H402v-1.4h1.4zM405.7 316.1h-1.5v-1.5h1.5zm0 4.5h-1.5v-1.4h1.5zM407.9 322h-1.4v-1.4h1.4zM410.2 316.1h-1.5v-1.5h1.5zm0 4.5h-1.5v-1.4h1.5zM412.4 322H411v-1.4h1.4zM414.7 316.1h-1.5v-1.5h1.5zm0 4.5h-1.5v-1.4h1.5zM416.9 322h-1.4v-1.4h1.4zM419.2 316.1h-1.5v-1.5h1.5zm0 4.5h-1.5v-1.4h1.5zM421.4 322H420v-1.4h1.4zM423.7 316.1h-1.5v-1.5h1.5zm0 4.5h-1.5v-1.4h1.5zM425.9 322h-1.4v-1.4h1.4zM428.2 316.1h-1.5v-1.5h1.5zm0 4.5h-1.5v-1.4h1.5zM430.4 322H429v-1.4h1.4zM432.7 316.1h-1.5v-1.5h1.5zm0 4.5h-1.5v-1.4h1.5zM434.9 322h-1.4v-1.4h1.4zM437.2 316.1h-1.5v-1.5h1.5zm0 4.5h-1.5v-1.4h1.5zM439.4 322H438v-1.4h1.4zM441.7 316.1h-1.5v-1.5h1.5zm0 4.5h-1.5v-1.4h1.5zM443.9 322h-1.4v-1.4h1.4zM446.2 316.1h-1.5v-1.5h1.5zm0 4.5h-1.5v-1.4h1.5zM448.4 322H447v-1.4h1.4zM450.7 316.1h-1.5v-1.5h1.5zm0 4.5h-1.5v-1.4h1.5zM452.9 322h-1.4v-1.4h1.4zM455.2 316.1h-1.5v-1.5h1.5zm0 4.5h-1.5v-1.4h1.5zM457.4 322H456v-1.4h1.4zM459.7 316.1h-1.5v-1.5h1.5zm0 4.5h-1.5v-1.4h1.5zM461.9 322h-1.4v-1.4h1.4zM464.2 316.1h-1.5v-1.5h1.5zm0 4.5h-1.5v-1.4h1.5zM466.4 322H465v-1.4h1.4zM468.7 316.1h-1.5v-1.5h1.5zm0 4.5h-1.5v-1.4h1.5zM470.9 322h-1.4v-1.4h1.4zM473.2 316.1h-1.5v-1.5h1.5zm0 4.5h-1.5v-1.4h1.5zM475.4 322H474v-1.4h1.4zM477.7 316.1h-1.5v-1.5h1.5zm0 4.5h-1.5v-1.4h1.5zM479.9 322h-1.4v-1.4h1.4zM482.2 316.1h-1.5v-1.5h1.5zm0 4.5h-1.5v-1.4h1.5zM484.4 322H483v-1.4h1.4zM486.7 316.1h-1.5v-1.5h1.5zm0 4.5h-1.5v-1.4h1.5zM488.9 322h-1.4v-1.4h1.4zM494.6 312l.6.2-5.3 10.1-.7-.2zM497.2 316.1h-1.5v-1.5h1.5zm0 4.5h-1.5v-1.4h1.5zM503.2 316.1h-1.5v-1.5h1.5zm0 4.5h-1.5v-1.4h1.5zM509.2 316.1h-1.5v-1.5h1.5zm0 4.5h-1.5v-1.4h1.5zM515.2 316.1h-1.5v-1.5h1.5zm0 4.5h-1.5v-1.4h1.5zM521.2 316.1h-1.5v-1.5h1.5zm0 4.5h-1.5v-1.4h1.5zM526.5 311.8l10.1 10.3-.7.6-10.1-10.3zM207.7 330.5h-1.5V329h1.5zm0 4.5h-1.5v-1.4h1.5zM213.7 330.5h-1.5V329h1.5zm0 4.5h-1.5v-1.4h1.5zM219.7 330.5h-1.5V329h1.5zm0 4.5h-1.5v-1.4h1.5zM225.7 330.5h-1.5V329h1.5zm0 4.5h-1.5v-1.4h1.5zM231.7 330.5h-1.5V329h1.5zm0 4.5h-1.5v-1.4h1.5zM237.7 330.5h-1.5V329h1.5zm0 4.5h-1.5v-1.4h1.5zM243.7 330.5h-1.5V329h1.5zm0 4.5h-1.5v-1.4h1.5zM249.7 330.5h-1.5V329h1.5zm0 4.5h-1.5v-1.4h1.5zM255.7 330.5h-1.5V329h1.5zm0 4.5h-1.5v-1.4h1.5zM257.1 337.5v-11.8h.9v11.8zM267.3 337.1h-.4a18.6 18.6 0 0 0-1.7-7.3 31.2 31.2 0 0 1-1.6 7.3l-.8-.2c.8-1.9 1.5-5.6 2.1-11 .7.1 1 .3 1 .5h-.3c0 .1-.1.7-.2 1.7a19 19 0 0 1 2.2 7.8c1.8-2 2.7-5.4 2.9-10.2.7.1 1.1.3 1 .5l-.2.2a1.5 1.5 0 0 1-.1.7q1.4 6.6 3 8.7l.4.5-.7.4c-1.1-1.1-2.1-3.5-2.9-7.1q-.9 5.3-3.3 7.5zM283.5 329.2a16.5 16.5 0 0 1-.4-3.1c.7 0 1 .1 1 .3s0 .2-.2.3a21.7 21.7 0 0 0 .4 2.5h5.7v.8h-5.5a12 12 0 0 0 3.8 5.7h.1c.3.3.5.3.5.2v-1.4l.8.3v1.1c0 .8-.2 1.2-.5 1.2a2.3 2.3 0 0 1-1.3-.7 14.1 14.1 0 0 1-4-5.8l-.2-.6h-4.8v-.8zm2-2.2l.5-.7a12.9 12.9 0 0 1 1.7 1.6l-.5.6a6.1 6.1 0 0 0-1.7-1.5zM291.8 331.9l1.8-.5h1.5a1.7 1.7 0 0 1 1.2.5 1.8 1.8 0 0 1 .4 1 2.4 2.4 0 0 1 0 1.2 3.5 3.5 0 0 1-.8 1.3 2.4 2.4 0 0 1-1 1l-1.5.6a5.9 5.9 0 0 0-.4-.8l1.2-.4a2.8 2.8 0 0 0 .9-.7 2.1 2.1 0 0 0 .6-1 3.8 3.8 0 0 0 .1-1c-.1-.2-.1-.4-.2-.6l-.7-.3h-1.2l-1.6.7a1.8 1.8 0 0 0-.4-.9zm1.2-3a13.3 13.3 0 0 0 3 .6c-.1.3-.1.5-.2.8a16.7 16.7 0 0 1-3-.7zM299.7 326.9c0-.2 0-.2.2-.2l1 .2c.1 0 .1.1 0 .2v.2a6.4 6.4 0 0 0-.3 2 6 6 0 0 0 0 1.9c0 .5 0 .8.1.8l.3-.2.4-.8.8.8-.9 1.1a1 1 0 0 1-.9.4c-.4.1-.6-.3-.8-1.2a21.7 21.7 0 0 1-.1-2.6c.1-.9.2-1.5.2-1.9a2.6 2.6 0 0 0 0-.7zm5.8 0c0 1.2.1 2.2.1 3v2.1a8.4 8.4 0 0 1-.5 2 5.2 5.2 0 0 1-1.3 1.7l-2.1 1.3a6.1 6.1 0 0 0-.7-1 7.5 7.5 0 0 0 2-.9 2.8 2.8 0 0 0 1.1-1.3 8.5 8.5 0 0 0 .4-1.7v-2c0-.7-.1-1.4-.1-2.1a2.9 2.9 0 0 0-.2-1.2c-.1-.1 0-.2.1-.2h1.2c.1 0 .1.1 0 .2zM324.7 336.1l-1.1 1.5h-.3l.5-1.2h-.6V335h1.5z" transform="translate(-179.7 -95.5)"/><path class="pink" d="M358.8 326.4l.7.2-5.3 10.1-.7-.2zM364.8 326.4l.7.2-5.3 10.1-.7-.2zM370.8 326.4l.7.2-5.3 10.1-.7-.2z" transform="translate(-179.7 -95.5)"/><path class="50blue" d="M376.8 326.4l.7.2-5.3 10.1-.7-.2zM383.2 330.5h-1.5V329h1.5zm0 4.5h-1.5v-1.4h1.5zM390.1 337.3a1.9 1.9 0 0 1-1.2-.4 1.8 1.8 0 0 1-.6-1.5v-1.8a2.9 2.9 0 0 0-.2-1.2c-.1-.2-.3-.3-.7-.3v-1c.4 0 .6-.1.7-.3a2.9 2.9 0 0 0 .2-1.2v-1.8a1.8 1.8 0 0 1 .6-1.5 1.9 1.9 0 0 1 1.2-.4v.6a1 1 0 0 0-.7.2c-.2.1-.3.5-.3 1.1v1.8a3 3 0 0 1-.3 1.6c-.3.3-.5.4-.7.4s.4.1.7.4a3 3 0 0 1 .3 1.6v1.8c0 .6.1 1 .3 1.1a1 1 0 0 0 .7.2zM391.5 326.2l10.1 10.3-.7.6-10.1-10.3zM404.2 330.5h-1.5V329h1.5zm0 4.5h-1.5v-1.4h1.5zM406.4 336.4H405V335h1.4zM408.7 330.5h-1.5V329h1.5zm0 4.5h-1.5v-1.4h1.5zM410.9 336.4h-1.4V335h1.4zM413.2 330.5h-1.5V329h1.5zm0 4.5h-1.5v-1.4h1.5zM415.4 336.4H414V335h1.4zM417.7 330.5h-1.5V329h1.5zm0 4.5h-1.5v-1.4h1.5zM419.9 336.4h-1.4V335h1.4zM422.2 330.5h-1.5V329h1.5zm0 4.5h-1.5v-1.4h1.5zM424.4 336.4H423V335h1.4zM426.7 330.5h-1.5V329h1.5zm0 4.5h-1.5v-1.4h1.5zM428.9 336.4h-1.4V335h1.4zM431.2 330.5h-1.5V329h1.5zm0 4.5h-1.5v-1.4h1.5zM433.4 336.4H432V335h1.4zM435.7 330.5h-1.5V329h1.5zm0 4.5h-1.5v-1.4h1.5zM437.9 336.4h-1.4V335h1.4zM440.2 330.5h-1.5V329h1.5zm0 4.5h-1.5v-1.4h1.5zM442.4 336.4H441V335h1.4zM444.7 330.5h-1.5V329h1.5zm0 4.5h-1.5v-1.4h1.5zM446.9 336.4h-1.4V335h1.4zM449.2 330.5h-1.5V329h1.5zm0 4.5h-1.5v-1.4h1.5zM451.4 336.4H450V335h1.4zM453.7 330.5h-1.5V329h1.5zm0 4.5h-1.5v-1.4h1.5zM455.9 336.4h-1.4V335h1.4zM458.2 330.5h-1.5V329h1.5zm0 4.5h-1.5v-1.4h1.5zM460.4 336.4H459V335h1.4zM462.7 330.5h-1.5V329h1.5zm0 4.5h-1.5v-1.4h1.5zM464.9 336.4h-1.4V335h1.4zM467.2 330.5h-1.5V329h1.5zm0 4.5h-1.5v-1.4h1.5zM469.4 336.4H468V335h1.4zM471.7 330.5h-1.5V329h1.5zm0 4.5h-1.5v-1.4h1.5zM473.9 336.1l-1 1.5h-.4l.5-1.2h-.6V335h1.5zM479.3 336h-.9l-1.6-2.6-1.3 2.6h-.9l1.8-3.3-1.8-3.1h.9l1.4 2.5 1.4-2.5h.9l-1.8 3.3zM484.2 326.5c0-.1.1-.1.2-.1l1.1.5c.1 0 .1.1 0 .2h-.2a17.9 17.9 0 0 1-2.6 2.8l-1.4 1.3v.3l1.3 1.2 3.3 2.8-1 1a28.8 28.8 0 0 0-3.3-3.5l-1.5-1.4v-.5a7 7 0 0 1 1.4-1.5 13.9 13.9 0 0 0 2.1-2.2 4 4 0 0 0 .6-.9zM486.3 325.9h11.9v.8h-11.9zM498.3 325.9h11.9v.8h-11.9zM512 326.3h1.6l1.3 2.1h-.9zM517.5 326.2l10.1 10.3-.7.6-10.1-10.3zM530.2 330.5h-1.5V329h1.5zm0 4.5h-1.5v-1.4h1.5zM536.2 330.5h-1.5V329h1.5zm0 4.5h-1.5v-1.4h1.5zM542.7 330.1a25.3 25.3 0 0 1 2.2 2l1.4 1.6 1.2 1.7a4.5 4.5 0 0 0-1 .9l-1.1-2a17.6 17.6 0 0 0-2.1-2.4l-1.2-.9zM204.8 341.3l.6-.4 4.7 9.4h.1l4.7-9.4.7.4-5 9.8c-.1.3-.3.4-.4.4s-.3-.1-.5-.4zM217.5 340.6l10.1 10.3-.7.6-10.1-10.3zM233.9 344.9h-1.5v-1.5h1.5zm0 4.5h-1.5V348h1.5zM239.9 344.9h-1.5v-1.5h1.5zm0 4.5h-1.5V348h1.5zM245.9 344.9h-1.5v-1.5h1.5zm0 4.5h-1.5V348h1.5zM251.9 344.9h-1.5v-1.5h1.5zm0 4.5h-1.5V348h1.5zM257.1 351.9v-11.8h.9v11.8zM261.5 344.5l2.1 2a10.7 10.7 0 0 1 1.4 1.6l1.2 1.7-1 .9a9.5 9.5 0 0 0-1.1-2 24.9 24.9 0 0 0-2-2.4l-1.3-.9zM272 357.2a21.5 21.5 0 0 1 1.8 2.3 11.8 11.8 0 0 1 1.1 1.9l.9 1.9-1.1.6a10.2 10.2 0 0 0-.8-2.1 14.3 14.3 0 0 0-1.6-2.7l-1.1-1.1zM360.8 341.3l.6-.4 4.7 9.4h.1l4.7-9.4.7.4-5 9.8c-.1.3-.3.4-.4.4s-.3-.1-.5-.4zM374.2 344.9h-1.5v-1.5h1.5zm0 4.5h-1.5V348h1.5zM380.2 344.9h-1.5v-1.5h1.5zm0 4.5h-1.5V348h1.5zM388.1 342c.7.1 1 .3 1 .4s-.1.2-.3.2a19.9 19.9 0 0 1-3.7 9.1l-.8-.3a18.2 18.2 0 0 0 3.8-9.4zm1.4-.3v-.8h2.2a18.8 18.8 0 0 0 4.2 10l-.7.3a19.2 19.2 0 0 1-4.2-9.5zM405.7 340.6l10.2 10.3-.7.6-10.2-10.3zM418.4 344.9h-1.5v-1.5h1.5zm0 4.5h-1.5V348h1.5zM420.7 350.8h-1.5v-1.4h1.5zM422.9 344.9h-1.5v-1.5h1.5zm0 4.5h-1.5V348h1.5zM425.2 350.8h-1.5v-1.4h1.5zM427.4 344.9h-1.5v-1.5h1.5zm0 4.5h-1.5V348h1.5zM429.7 350.8h-1.5v-1.4h1.5zM431.9 344.9h-1.5v-1.5h1.5zm0 4.5h-1.5V348h1.5zM434.2 350.8h-1.5v-1.4h1.5zM436.4 344.9h-1.5v-1.5h1.5zm0 4.5h-1.5V348h1.5zM438.7 350.8h-1.5v-1.4h1.5zM440.9 344.9h-1.5v-1.5h1.5zm0 4.5h-1.5V348h1.5zM443.2 350.8h-1.5v-1.4h1.5zM445.4 344.9h-1.5v-1.5h1.5zm0 4.5h-1.5V348h1.5zM447.7 350.8h-1.5v-1.4h1.5zM449.9 344.9h-1.5v-1.5h1.5zm0 4.5h-1.5V348h1.5zM450.3 350.9h3.6v.8h-3.6zM455.9 350.5l-1 1.5h-.4l.5-1.2h-.6v-1.4h1.5zM458.2 344.9h-1.5v-1.5h1.5zm0 4.3l-.9 1.7h-.4l.4-1.5h-.6V348h1.5zM469.2 340.6l.7.6-10.2 10.3-.7-.6zM472.4 344.9h-1.5v-1.5h1.5zm0 4.5h-1.5V348h1.5zM478.4 344.9h-1.5v-1.5h1.5zm0 4.5h-1.5V348h1.5zM484.4 344.9h-1.5v-1.5h1.5zm0 4.5h-1.5V348h1.5zM489.7 340.6l10.2 10.3-.7.6-10.2-10.3zM529.1 351.7v-.6a1.2 1.2 0 0 0 .8-.2c.2-.1.3-.5.3-1.1V348a3 3 0 0 1 .3-1.6c.3-.3.5-.4.7-.4s-.4-.1-.7-.4a3 3 0 0 1-.3-1.6v-1.8c0-.6-.1-1-.3-1.1a1.2 1.2 0 0 0-.8-.2v-.6a2 2 0 0 1 1.3.4 1.8 1.8 0 0 1 .6 1.5v1.8a2.9 2.9 0 0 0 .2 1.2c.1.2.3.3.7.3v1c-.4 0-.6.1-.7.3a2.9 2.9 0 0 0-.2 1.2v1.8a1.8 1.8 0 0 1-.6 1.5 2 2 0 0 1-1.3.4zM533.9 344.9h-1.5v-1.5h1.5zm0 4.5h-1.5V348h1.5zM539.9 344.9h-1.5v-1.5h1.5zm0 4.5h-1.5V348h1.5zM545.9 344.9h-1.5v-1.5h1.5zm0 4.5h-1.5V348h1.5zM547.4 351.9v-11.8h.8v11.8zM233.3 355.1l9.9 4.9a.7.7 0 0 1 .4.5c0 .1-.2.3-.4.4l-9.9 4.9-.3-.6 9.4-4.7-9.4-4.8zM249.7 359.3h-1.5v-1.5h1.5zm0 4.5h-1.5v-1.4h1.5zM254.6 365.9h-.4a20.5 20.5 0 0 0-1.7-7.3 36 36 0 0 1-1.7 7.3l-.7-.2c.8-1.9 1.5-5.6 2.1-11 .6.1 1 .3.9.5h-.1a.1.1 0 0 0-.1.1c0 .1-.1.7-.2 1.7a20.6 20.6 0 0 1 2.2 7.8c1.7-2 2.7-5.4 2.9-10.2.7.1 1 .3 1 .5l-.3.2v.7c.8 4.4 1.8 7.3 2.9 8.7l.5.5-.7.4c-1.2-1.1-2.2-3.5-3-7.1q-.7 5.3-3.3 7.5zM263.9 359.3h-1.5v-1.5h1.5zm0 4.5h-1.5v-1.4h1.5zM269.9 359.3h-1.5v-1.5h1.5zm0 4.5h-1.5v-1.4h1.5z" transform="translate(-179.7 -95.5)"/><path class="pink" d="M287.6 355.2l.6.2-5.3 10.1-.7-.2zM281.6 355.2l.6.2-5.3 10.1-.7-.2zM293.6 355.2l.6.2-5.3 10.1-.7-.2z" transform="translate(-179.7 -95.5)"/><path class="50blue" d="M324.4 357.3l.4.8-13.3 5.5-.4-.8zM365 357.2h-1.1v-1.1h1.1zm-.1 7.6h-1v-6.4h1zM366.6 366.3v-11.8h.9v11.8zM370.4 359.3h-1.5v-1.5h1.5zm0 4.5h-1.5v-1.4h1.5zM376.4 359.3h-1.5v-1.5h1.5zm0 4.5h-1.5v-1.4h1.5zM382.4 359.3h-1.5v-1.5h1.5zm0 4.5h-1.5v-1.4h1.5zM383.9 366.3v-11.8h.8v11.8zM392.2 356.4c0-.2.1-.2.2-.2l1.3.3c.1 0 .1.1 0 .2l-.2.2a9.9 9.9 0 0 1-.9 2.8 9.2 9.2 0 0 1-2 3.1 11 11 0 0 1-4 2.5 2.4 2.4 0 0 0-.6-1.1 6.5 6.5 0 0 0 3.5-1.8 7.2 7.2 0 0 0 2-2.9 6.1 6.1 0 0 0 .7-2.3c.1-.5.1-.7 0-.8zM396.9 366.1a2 2 0 0 1-1.3-.4 1.8 1.8 0 0 1-.6-1.5v-1.8a3.5 3.5 0 0 0-.1-1.2c-.1-.2-.4-.3-.8-.3v-1c.4 0 .7-.1.8-.3a3.5 3.5 0 0 0 .1-1.2v-1.8a1.8 1.8 0 0 1 .6-1.5 2 2 0 0 1 1.3-.4v.6a.8.8 0 0 0-.7.2c-.3.1-.4.5-.4 1.1v1.8a3 3 0 0 1-.3 1.6.5.5 0 1 0 0 .8 3 3 0 0 1 .3 1.6v1.8c0 .6.1 1 .4 1.1a.8.8 0 0 0 .7.2zM421.8 354.7h11.9v.8h-11.9zM440.3 357.1v-1h-2.7v-.8h3.5c-.1 4.8 1.2 8.1 4.1 9.7l.4.2-.6.6q-3.6-1.9-4.5-6.9a12.9 12.9 0 0 1-6 7.3l-.6-.6c3.1-1.6 5.3-4.5 6.4-8.6zM445.8 354.7h11.9v.8h-11.9zM457.8 354.7h11.9v.8h-11.9zM471.5 355.1h1.6l1.3 2.1h-.9zM477 355l10.1 10.3-.7.6-10.1-10.3zM489.7 359.3h-1.5v-1.5h1.5zm0 4.5h-1.5v-1.4h1.5zM495.7 359.3h-1.5v-1.5h1.5zm0 4.5h-1.5v-1.4h1.5zM500.7 355.9h1.2v7.9h5.3v1h-6.5zM509.9 365.2h-1.4v-1.4h1.4zM512.2 365.2h-1.5v-1.4h1.5zM516.3 365.3h3.6v.8h-3.6zM533.2 355l10.2 10.3-.7.6-10.2-10.3zM545.9 359.3h-1.5v-1.5h1.5zm0 4.5h-1.5v-1.4h1.5zM551.2 355l10.2 10.3-.7.6-10.2-10.3zM227.7 369.4l.7.6-10.2 10.3-.7-.6zM230.9 373.7h-1.5v-1.5h1.5zm0 4.5h-1.5v-1.4h1.5zM236.9 373.7h-1.5v-1.5h1.5zm0 4.5h-1.5v-1.4h1.5zM242.9 373.7h-1.5v-1.5h1.5zm0 4.5h-1.5v-1.4h1.5zM248.9 373.7h-1.5v-1.5h1.5zm0 4.5h-1.5v-1.4h1.5zM255.7 370.5c1.4 4.6 3.1 7.5 5 8.8l.4.3-.6.6c-2-1.2-3.6-3.8-5.1-8q-1.1 5.9-5.4 8.4l-.6-.6c3.4-1.8 5.3-5.4 5.6-10.8.7.1 1.1.3 1 .5h-.2a1.8 1.8 0 0 1-.1.8zM261.4 380.5v-.6a.8.8 0 0 0 .7-.2c.2-.1.3-.5.3-1.1v-1.8a2.8 2.8 0 0 1 .4-1.6.4.4 0 1 0 0-.8 2.8 2.8 0 0 1-.4-1.6V371c0-.6-.1-1-.3-1.1a.8.8 0 0 0-.7-.2v-.6a1.9 1.9 0 0 1 1.2.4 1.6 1.6 0 0 1 .7 1.5v1.8a3.5 3.5 0 0 0 .1 1.2c.1.2.3.3.7.3v1c-.4 0-.6.1-.7.3a3.5 3.5 0 0 0-.1 1.2v1.8a1.6 1.6 0 0 1-.7 1.5 1.9 1.9 0 0 1-1.2.4zM266.2 373.7h-1.5v-1.5h1.5zm0 4.5h-1.5v-1.4h1.5zM272.2 373.7h-1.5v-1.5h1.5zm0 4.5h-1.5v-1.4h1.5zM278.2 373.7h-1.5v-1.5h1.5zm0 4.5h-1.5v-1.4h1.5zM279.7 378.1l.6-.9a21.1 21.1 0 0 1 2.3 1.9l-.9.8a5.9 5.9 0 0 0-2-1.8zM309.9 380.5a2 2 0 0 1-1.3-.4 1.8 1.8 0 0 1-.6-1.5v-1.8a3.5 3.5 0 0 0-.1-1.2c-.1-.2-.4-.3-.8-.3v-1c.4 0 .7-.1.8-.3a3.5 3.5 0 0 0 .1-1.2V371a1.8 1.8 0 0 1 .6-1.5 2 2 0 0 1 1.3-.4v.6a.8.8 0 0 0-.7.2c-.3.1-.4.5-.4 1.1v1.8a3 3 0 0 1-.3 1.6.5.5 0 1 0 0 .8 3 3 0 0 1 .3 1.6v1.8c0 .6.1 1 .4 1.1a.8.8 0 0 0 .7.2zM354.8 369.9h.2l1 .2c.1 0 .1.1 0 .2h-.1c-.2.9-.4 1.8-.7 2.8a11.8 11.8 0 0 1-1.2 2.8 13.1 13.1 0 0 1-2.2 2.9 6 6 0 0 0-.8-.8 7.9 7.9 0 0 0 2.1-2.4 13.1 13.1 0 0 0 1.2-2.7c.3-1 .4-1.7.5-2.1s.1-.8 0-.9zM366.6 380.7v-11.8h.9v11.8zM370.4 373.7h-1.5v-1.5h1.5zm0 4.5h-1.5v-1.4h1.5zM376.4 373.7h-1.5v-1.5h1.5zm0 4.5h-1.5v-1.4h1.5zM382.4 373.7h-1.5v-1.5h1.5zm0 4.5h-1.5v-1.4h1.5zM383.9 380.7v-11.8h.8v11.8zM426.8 379.2h-.9l-1.6-2.6-1.3 2.6h-.9l1.8-3.3-1.8-3.1h.9l1.4 2.5 1.4-2.5h.9l-1.8 3.3zM431.7 369.7h.2l1.1.5c.1 0 .1.1 0 .2h-.2a17.9 17.9 0 0 1-2.6 2.8l-1.4 1.3v.3l1.3 1.2 3.3 2.8-1 1a28.8 28.8 0 0 0-3.3-3.5l-1.5-1.4v-.5a7 7 0 0 1 1.4-1.4 20.6 20.6 0 0 0 2.1-2.1 5.7 5.7 0 0 0 .6-1.2zM435.7 373.7h-1.5v-1.5h1.5zm0 4.5h-1.5v-1.4h1.5zM441.7 373.7h-1.5v-1.5h1.5zm0 4.5h-1.5v-1.4h1.5zM447.7 373.7h-1.5v-1.5h1.5zm0 4.5h-1.5v-1.4h1.5zM449.2 369.4l10.2 10.3-.7.6-10.2-10.3zM489.5 370.3h1.1v7.9h5.4v1h-6.5zM502.4 373.7h-1.5v-1.5h1.5zm0 4.5h-1.5v-1.4h1.5zM508.4 373.7h-1.5v-1.5h1.5zm0 4.5h-1.5v-1.4h1.5zM514.4 373.7h-1.5v-1.5h1.5zm0 4.5h-1.5v-1.4h1.5zM519.6 380.7v-11.8h.9v11.8zM529.8 379.8h11.9v.8h-11.9zM547.1 369.6l.6.2-5.3 10.1-.7-.2zM553.4 373.7h-1.5v-1.5h1.5zm0 4.5h-1.5v-1.4h1.5zM562.8 369.6l.7.2-5.3 10.1-.7-.2zM213.3 384l.7.2-5.3 10.1-.7-.2zM215.9 388.1h-1.5v-1.5h1.5zm0 4.5h-1.5v-1.4h1.5zM221.9 388.1h-1.5v-1.5h1.5zm0 4.5h-1.5v-1.4h1.5zM227.9 388.1h-1.5v-1.5h1.5zm0 4.5h-1.5v-1.4h1.5zM233.9 388.1h-1.5v-1.5h1.5zm0 4.5h-1.5v-1.4h1.5zM244.9 383.8l.7.6-10.1 10.3-.7-.6zM256.9 383.8l.7.6-10.1 10.3-.7-.6zM262.5 385.3c0-.1 0-.1.2-.1l1 .2v.2h-.2a16.4 16.4 0 0 1-.7 2.8 11.8 11.8 0 0 1-1.2 2.8 10.6 10.6 0 0 1-2.2 2.9 3 3 0 0 0-.8-.8 7.9 7.9 0 0 0 2.1-2.4 13.1 13.1 0 0 0 1.2-2.7 9.7 9.7 0 0 0 .5-2.1 3.2 3.2 0 0 0 .1-.8zM266.2 388.1h-1.5v-1.5h1.5zm0 4.5h-1.5v-1.4h1.5zM272.2 388.1h-1.5v-1.5h1.5zm0 4.5h-1.5v-1.4h1.5zM278.2 388.1h-1.5v-1.5h1.5zm0 4.5h-1.5v-1.4h1.5zM283.5 383.8l10.1 10.3-.7.6-10.1-10.3zM294.3 394.1h3.6v.8h-3.6zM298 394.2h12v.8h-12zM310 394.2h12v.8h-12zM322 394.2h12v.8h-12zM334 394.1h3.7v.8H334zM337.8 394.1h3.6v.8h-3.6zM364.2 383.8l.7.6-10.2 10.3-.7-.6zM366.6 395.1v-11.8h.9v11.8zM370.4 388.1h-1.5v-1.5h1.5zm0 4.5h-1.5v-1.4h1.5zM376.4 388.1h-1.5v-1.5h1.5zm0 4.5h-1.5v-1.4h1.5zM382.4 388.1h-1.5v-1.5h1.5zm0 4.5h-1.5v-1.4h1.5zM388.4 388.1h-1.5v-1.5h1.5zm0 4.5h-1.5v-1.4h1.5zM389.5 392.4l.7-.5a8.6 8.6 0 0 1 1.4 1.8l-.8.5a5.7 5.7 0 0 0-1.3-1.8zM417.2 384.4c0-.1.1-.2.2-.1l1.2.6c.1.1.1.1 0 .2h-.3a12.7 12.7 0 0 1-1.4 1.7l-1 1.1h.3c.1 0 .2.1.1.2v6h-1.1v-5.6a3.8 3.8 0 0 1-1.1.8 17.8 17.8 0 0 1-3.1 1.9 3.7 3.7 0 0 0-.5-1.1 13 13 0 0 0 3.1-1.6 10.8 10.8 0 0 0 2.2-1.9 6.4 6.4 0 0 0 1.2-1.5c.2-.3.3-.6.2-.7zM421.4 388.1h-1.5v-1.5h1.5zm0 4.5h-1.5v-1.4h1.5zM427.4 388.1h-1.5v-1.5h1.5zm0 4.5h-1.5v-1.4h1.5zM427.9 394.9v-.6a.8.8 0 0 0 .7-.2c.2-.1.3-.5.3-1.1v-1.8a2.8 2.8 0 0 1 .4-1.6.4.4 0 1 0 0-.8 2.8 2.8 0 0 1-.4-1.6v-1.8c0-.6-.1-1-.3-1.1a.8.8 0 0 0-.7-.2v-.6a1.9 1.9 0 0 1 1.2.4 1.6 1.6 0 0 1 .7 1.5v1.8a3.5 3.5 0 0 0 .1 1.2c.1.2.3.3.7.3v1c-.4 0-.6.1-.7.3a3.5 3.5 0 0 0-.1 1.2v1.8a1.6 1.6 0 0 1-.7 1.5 1.9 1.9 0 0 1-1.2.4zM431.4 388.2a3.8 3.8 0 0 1 1.5-2.7 6.6 6.6 0 0 1 7.6 0 3.8 3.8 0 0 1 1.5 2.7h-.8a3.5 3.5 0 0 0-1.4-2.4 4.8 4.8 0 0 0-3.1-.9 5.3 5.3 0 0 0-3.2.9 4 4 0 0 0-1.4 2.4zM443.8 384.7h6.1v1l-3 7.9h-1.2l2.9-7.8h-4.8zM452.9 388.1h-1.5v-1.5h1.5zm0 4.5h-1.5v-1.4h1.5zM458.9 388.1h-1.5v-1.5h1.5zm0 4.5h-1.5v-1.4h1.5zM464.7 383.9h1.6l1.4 2.1h-.9zM469.8 384.7h4.6v1l-2.7 7.9h-1.1l2.6-7.8h-3.4zM490.8 394.2h11.9v.8h-11.9zM502.9 394.9v-.6a.8.8 0 0 0 .7-.2c.2-.1.3-.5.3-1.1v-1.8a2.8 2.8 0 0 1 .4-1.6.4.4 0 1 0 0-.8 2.8 2.8 0 0 1-.4-1.6v-1.8c0-.6-.1-1-.3-1.1a.8.8 0 0 0-.7-.2v-.6a1.9 1.9 0 0 1 1.2.4 1.6 1.6 0 0 1 .7 1.5v1.8a3.5 3.5 0 0 0 .1 1.2c.1.2.3.3.7.3v1c-.4 0-.6.1-.7.3a3.5 3.5 0 0 0-.1 1.2v1.8a1.6 1.6 0 0 1-.7 1.5 1.9 1.9 0 0 1-1.2.4zM507.7 388.1h-1.5v-1.5h1.5zm0 4.5h-1.5v-1.4h1.5zM513.7 388.1h-1.5v-1.5h1.5zm0 4.5h-1.5v-1.4h1.5zM518.9 395.1v-11.8h.8v11.8zM530.2 383.8l10.2 10.3-.7.6-10.2-10.3zM546.7 388.1h-1.5v-1.5h1.5zm0 4.5h-1.5v-1.4h1.5zM552.7 388.1h-1.5v-1.5h1.5zm0 4.5h-1.5v-1.4h1.5zM558 383.8l10.1 10.3-.7.6-10.1-10.3zM190.8 408.5h3.6v.8h-3.6zM194.5 408.5h3.7v.8h-3.7zM200.2 408.1l-1.1 1.5h-.3l.5-1.2h-.6V407h1.5zM205.8 398.4l.7.2-5.3 10.1-.7-.2zM208.4 402.5h-1.5V401h1.5zm0 4.5h-1.5v-1.4h1.5zM214.4 402.5h-1.5V401h1.5zm0 4.5h-1.5v-1.4h1.5zM229.2 398.2l.7.6-10.2 10.3-.7-.6zM244.1 398.4l.6.2-5.3 10.1-.7-.2zM255.4 398.2l.7.6-10.1 10.3-.7-.6zM258.7 402.5h-1.5V401h1.5zm0 4.5h-1.5v-1.4h1.5zM264.7 402.5h-1.5V401h1.5zm0 4.5h-1.5v-1.4h1.5zM270.7 402.5h-1.5V401h1.5zm0 4.5h-1.5v-1.4h1.5zM276.7 402.5h-1.5V401h1.5zm0 4.5h-1.5v-1.4h1.5zM285 399.7h.2l1 .2v.2h-.2a16.4 16.4 0 0 1-.7 2.8 11.8 11.8 0 0 1-1.2 2.8 10.6 10.6 0 0 1-2.2 2.9 3 3 0 0 0-.8-.8 7.9 7.9 0 0 0 2.1-2.4 13.1 13.1 0 0 0 1.2-2.7 9.7 9.7 0 0 0 .5-2.1 3.2 3.2 0 0 0 .1-.9zM288.7 402.5h-1.5V401h1.5zm0 4.5h-1.5v-1.4h1.5zM294.7 402.5h-1.5V401h1.5zm0 4.5h-1.5v-1.4h1.5zM300.3 398.4l.7.2-5.3 10.1-.7-.2zM303.9 409.3a2 2 0 0 1-1.3-.4 1.8 1.8 0 0 1-.6-1.5v-1.8a3.5 3.5 0 0 0-.1-1.2c-.1-.2-.4-.3-.8-.3v-1c.4 0 .7-.1.8-.3a3.5 3.5 0 0 0 .1-1.2v-1.8a1.8 1.8 0 0 1 .6-1.5 2 2 0 0 1 1.3-.4v.6a.8.8 0 0 0-.7.2c-.3.1-.4.5-.4 1.1v1.8a3 3 0 0 1-.3 1.6.5.5 0 1 0 0 .8 3 3 0 0 1 .3 1.6v1.8c0 .6.1 1 .4 1.1a.8.8 0 0 0 .7.2zM315.1 409.3a1.9 1.9 0 0 1-1.2-.4 1.8 1.8 0 0 1-.6-1.5v-1.8a2.9 2.9 0 0 0-.2-1.2c-.1-.2-.3-.3-.7-.3v-1c.4 0 .6-.1.7-.3a2.9 2.9 0 0 0 .2-1.2v-1.8a1.8 1.8 0 0 1 .6-1.5 1.9 1.9 0 0 1 1.2-.4v.6a1 1 0 0 0-.7.2c-.2.1-.3.5-.3 1.1v1.8a3 3 0 0 1-.3 1.6c-.3.3-.5.4-.7.4s.4.1.7.4a3 3 0 0 1 .3 1.6v1.8c0 .6.1 1 .3 1.1a1 1 0 0 0 .7.2zM318.1 409.3a1.9 1.9 0 0 1-1.2-.4 1.8 1.8 0 0 1-.6-1.5v-1.8a2.9 2.9 0 0 0-.2-1.2c-.1-.2-.3-.3-.7-.3v-1c.4 0 .6-.1.7-.3a2.9 2.9 0 0 0 .2-1.2v-1.8a1.8 1.8 0 0 1 .6-1.5 1.9 1.9 0 0 1 1.2-.4v.6a1 1 0 0 0-.7.2c-.2.1-.3.5-.3 1.1v1.8a3 3 0 0 1-.3 1.6c-.3.3-.5.4-.7.4s.4.1.7.4a3 3 0 0 1 .3 1.6v1.8c0 .6.1 1 .3 1.1a1 1 0 0 0 .7.2zM329.4 409.3a2 2 0 0 1-1.3-.4 1.8 1.8 0 0 1-.6-1.5v-1.8a3.5 3.5 0 0 0-.1-1.2c-.1-.2-.4-.3-.8-.3v-1c.4 0 .7-.1.8-.3a3.5 3.5 0 0 0 .1-1.2v-1.8a1.8 1.8 0 0 1 .6-1.5 2 2 0 0 1 1.3-.4v.6a.8.8 0 0 0-.7.2c-.3.1-.4.5-.4 1.1v1.8a3 3 0 0 1-.3 1.6.5.5 0 1 0 0 .8 3 3 0 0 1 .3 1.6v1.8c0 .6.1 1 .4 1.1a.8.8 0 0 0 .7.2zM332.4 409.3a2 2 0 0 1-1.3-.4 1.8 1.8 0 0 1-.6-1.5v-1.8a3.5 3.5 0 0 0-.1-1.2c-.1-.2-.4-.3-.8-.3v-1c.4 0 .7-.1.8-.3a3.5 3.5 0 0 0 .1-1.2v-1.8a1.8 1.8 0 0 1 .6-1.5 2 2 0 0 1 1.3-.4v.6a.8.8 0 0 0-.7.2c-.3.1-.4.5-.4 1.1v1.8a3 3 0 0 1-.3 1.6.5.5 0 1 0 0 .8 3 3 0 0 1 .3 1.6v1.8c0 .6.1 1 .4 1.1a.8.8 0 0 0 .7.2zM332.5 408.6h12v.8h-12zM364.9 399.6c.7.1 1 .3.9.4a.2.2 0 0 1-.2.2 18.9 18.9 0 0 1-3.8 9.1l-.7-.3a19.1 19.1 0 0 0 3.8-9.4zm1.4-.3v-.8h2.2a19.6 19.6 0 0 0 4.1 10l-.7.3a20 20 0 0 1-4.1-9.5zM374.9 402.5h-1.5V401h1.5zm0 4.5h-1.5v-1.4h1.5zM380.9 402.5h-1.5V401h1.5zm0 4.5h-1.5v-1.4h1.5zM386.9 402.5h-1.5V401h1.5zm0 4.5h-1.5v-1.4h1.5zM392.9 402.5h-1.5V401h1.5zm0 4.5h-1.5v-1.4h1.5zM398.2 398.2l10.2 10.3-.7.6-10.2-10.3zM417.9 406.1a11.1 11.1 0 0 0-1.4-2.9l.6-.4a16.7 16.7 0 0 1 2.4 6.2l-.7.3-.6-2.5a43.1 43.1 0 0 1-7 2.2c-.1.2-.1.3-.2.2s-.4-.3-.6-.9l1.2-.2a58.1 58.1 0 0 0 2.3-10.1c.7.1 1 .3 1 .5l-.3.2a52.8 52.8 0 0 1-2.1 9.2q2.7-.7 5.4-1.8zM426 408h-.9l-1.5-2.6-1.4 2.6h-.9l1.8-3.3-1.8-3.1h.9l1.5 2.5 1.3-2.5h.9l-1.8 3.3zM430.8 400.4q.3 0 1.5 1.2c.8.7 2.3 1.9 4.7 3.6a5.2 5.2 0 0 0-.8 1.1l-4.4-3.9-1-.7-.4.3-2.7 2.7a3.6 3.6 0 0 0-.8-.9 34.3 34.3 0 0 0 3.1-2.6c.4-.5.6-.8.8-.8zM439.4 408.4H438V407h1.4zM445.3 397.6h.9v11.9h-.9zM453.7 402.5h-1.5V401h1.5zm0 4.5h-1.5v-1.4h1.5zM459.7 402.5h-1.5V401h1.5zm0 4.5h-1.5v-1.4h1.5zM465.7 402.5h-1.5V401h1.5zm0 4.5h-1.5v-1.4h1.5zM470.9 409.5v-11.8h.8v11.8zM474 398.2l10.1 10.3-.7.6-10.1-10.3zM489.7 398.2l10.2 10.3-.7.6-10.2-10.3zM502.4 402.5h-1.5V401h1.5zm0 4.5h-1.5v-1.4h1.5zM508.4 402.5h-1.5V401h1.5zm0 4.5h-1.5v-1.4h1.5zM514.4 402.5h-1.5V401h1.5zm0 4.5h-1.5v-1.4h1.5zM520.4 402.5h-1.5V401h1.5zm0 4.5h-1.5v-1.4h1.5zM522 398.2l10.1 10.3-.7.6-10.1-10.3zM544.8 397.9h11.9v.8h-11.9zM556.8 397.9h11.9v.8h-11.9zM186.3 412.8l.7.2-5.3 10.1-.7-.2zM192.7 416.9h-1.5v-1.5h1.5zm0 4.5h-1.5V420h1.5zM198.7 416.9h-1.5v-1.5h1.5zm0 4.5h-1.5V420h1.5zM199 423h12v.8h-12zM216.3 412.8l.7.2-5.3 10.1-.7-.2zM239.7 412.6l.7.6-10.2 10.3-.7-.6zM242.9 416.9h-1.5v-1.5h1.5zm0 4.5h-1.5V420h1.5zM248.9 416.9h-1.5v-1.5h1.5zm0 4.5h-1.5V420h1.5zM254.9 416.9h-1.5v-1.5h1.5zm0 4.5h-1.5V420h1.5zM260.9 416.9h-1.5v-1.5h1.5zm0 4.5h-1.5V420h1.5zM275.7 412.6l.7.6-10.2 10.3-.7-.6zM279.9 423.7a2 2 0 0 1-1.3-.4 1.8 1.8 0 0 1-.6-1.5V420a3.5 3.5 0 0 0-.1-1.2c-.1-.2-.4-.3-.8-.3v-1c.4 0 .7-.1.8-.3a3.5 3.5 0 0 0 .1-1.2v-1.8a1.8 1.8 0 0 1 .6-1.5 2 2 0 0 1 1.3-.4v.6a.8.8 0 0 0-.7.2c-.3.1-.4.5-.4 1.1v1.8a3 3 0 0 1-.3 1.6.5.5 0 1 0 0 .8 3 3 0 0 1 .3 1.6v1.8c0 .6.1 1 .4 1.1a.8.8 0 0 0 .7.2zM281.9 416.9h-1.5v-1.5h1.5zm0 4.5h-1.5V420h1.5zM287.9 416.9h-1.5v-1.5h1.5zm0 4.5h-1.5V420h1.5zM294.9 423.7a2 2 0 0 1-1.3-.4 1.8 1.8 0 0 1-.6-1.5V420a3.5 3.5 0 0 0-.1-1.2c-.1-.2-.4-.3-.8-.3v-1c.4 0 .7-.1.8-.3a3.5 3.5 0 0 0 .1-1.2v-1.8a1.8 1.8 0 0 1 .6-1.5 2 2 0 0 1 1.3-.4v.6a.8.8 0 0 0-.7.2c-.3.1-.4.5-.4 1.1v1.8a3 3 0 0 1-.3 1.6.5.5 0 1 0 0 .8 3 3 0 0 1 .3 1.6v1.8c0 .6.1 1 .4 1.1a.8.8 0 0 0 .7.2zM304.5 412.6l10.1 10.3-.7.6-10.1-10.3zM316.5 412.6l10.1 10.3-.7.6-10.1-10.3zM332.2 412.6l10.2 10.3-.7.6-10.2-10.3zM371.9 423.9v-11.8h.8v11.8zM375.4 422.4h-1v-8.9h1zM377.2 412.6l10.2 10.3-.7.6-10.2-10.3zM393.7 416.9h-1.5v-1.5h1.5zm0 4.5h-1.5V420h1.5zM399.7 416.9h-1.5v-1.5h1.5zm0 4.5h-1.5V420h1.5zM405.7 416.9h-1.5v-1.5h1.5zm0 4.5h-1.5V420h1.5zM411.7 416.9h-1.5v-1.5h1.5zm0 4.5h-1.5V420h1.5zM417.7 416.9h-1.5v-1.5h1.5zm0 4.5h-1.5V420h1.5zM423.7 416.9h-1.5v-1.5h1.5zm0 4.5h-1.5V420h1.5zM429.7 416.9h-1.5v-1.5h1.5zm0 4.5h-1.5V420h1.5zM435.7 416.9h-1.5v-1.5h1.5zm0 4.5h-1.5V420h1.5zM440.9 423.9v-11.8h.8v11.8zM446.5 412.3h11.9v.8h-11.9zM458.5 412.3h11.9v.8h-11.9zM473 416.5l2.1 2a10.7 10.7 0 0 1 1.4 1.6l1.2 1.7-1 .9a9.5 9.5 0 0 0-1.1-2 24.9 24.9 0 0 0-2-2.4l-1.3-.9zM490.2 416.5a25.3 25.3 0 0 1 2.2 2l1.4 1.6 1.2 1.7a4.5 4.5 0 0 0-1 .9l-1.1-2a17.6 17.6 0 0 0-2.1-2.4l-1.2-.9zM505 412.3h11.9v.8H505zM517 412.3h11.9v.8H517zM180.9 429.2h-1.2v-1.1h1.2zm0 7.6h-1.2v-6.4h1.2zM187.4 431.3h-1.5v-1.5h1.5zm0 4.5h-1.5v-1.4h1.5zM193.4 431.3h-1.5v-1.5h1.5zm0 4.5h-1.5v-1.4h1.5zM198.5 427.9h1.1v7.9h5.4v1h-6.5zM226.8 427.2l.7.2-5.3 10.1-.7-.2zM233.2 431.3h-1.5v-1.5h1.5zm0 4.5h-1.5v-1.4h1.5zM239.2 431.3h-1.5v-1.5h1.5zm0 4.5h-1.5v-1.4h1.5zM245.2 431.3h-1.5v-1.5h1.5zm0 4.5h-1.5v-1.4h1.5zM259.9 427l.7.6-10.1 10.3-.7-.6zM263.2 431.3h-1.5v-1.5h1.5zm0 4.5h-1.5v-1.4h1.5zM268.5 427l10.1 10.3-.7.6-10.1-10.3zM281.2 436.9l-1.1 1.5h-.3l.5-1.2h-.6v-1.4h1.5zM283.4 431.3h-1.5v-1.5h1.5zm0 4.5h-1.5v-1.4h1.5zM288.7 429.4a2.6 2.6 0 0 1 1.7 1.1 32.7 32.7 0 0 0 5 4v.2l-1 1c-2.5-2.3-4-3.7-4.5-4.3s-.9-.8-1.1-.8a.7.7 0 0 0-.6.3 30.2 30.2 0 0 1-2.8 2.8 3.8 3.8 0 0 0-.9-.9l3.2-2.7a1.4 1.4 0 0 1 1-.7zm3-.9a6.1 6.1 0 0 1 1.7 1.4l-.7.6a6.7 6.7 0 0 0-1.5-1.4zm1.3-1a8.3 8.3 0 0 1 1.8 1.3l-.8.6a5.1 5.1 0 0 0-1.5-1.4zM296.5 430.2l4.5-.9a6.1 6.1 0 0 1 2.7 0 2.7 2.7 0 0 1 1.6.8 3.9 3.9 0 0 1 .8 1.4 5.5 5.5 0 0 1-.1 1.8 3.1 3.1 0 0 1-1 1.5 4 4 0 0 1-1.7 1 16.5 16.5 0 0 1-3.4.5 10.4 10.4 0 0 0-.3-1.2h.1a12.4 12.4 0 0 0 3.1-.2 4 4 0 0 0 1.3-.7 2.8 2.8 0 0 0 .8-1.1 5.7 5.7 0 0 0 .1-1.2 3.1 3.1 0 0 0-.5-1 1.7 1.7 0 0 0-1.1-.6 5.2 5.2 0 0 0-2.1.1 27.4 27.4 0 0 0-4.4 1.1 3.6 3.6 0 0 0-.4-1.1zM307 437.3h3.7v.8H307zM319.7 434.9a15.9 15.9 0 0 0-1.5-2.9l.7-.4a16.7 16.7 0 0 1 2.4 6.2l-.8.3a10.2 10.2 0 0 0-.6-2.5 40.2 40.2 0 0 1-7 2.2c0 .2-.1.3-.2.2s-.3-.3-.5-.9l1.2-.2a69 69 0 0 0 2.3-10.1c.7.1 1 .3.9.5l-.2.2a80.8 80.8 0 0 1-2.1 9.2zM323.9 435.7l.6-.9a14.5 14.5 0 0 1 2.3 1.9 6 6 0 0 0-.8.8 7.2 7.2 0 0 0-2.1-1.8zM333.9 428.1v-1.2h1.5v1.5h-.6l.3 1.5h-.4zM339.1 438.1a1.9 1.9 0 0 1-1.2-.4 1.8 1.8 0 0 1-.6-1.5v-1.8a2.9 2.9 0 0 0-.2-1.2c-.1-.2-.3-.3-.7-.3v-1c.4 0 .6-.1.7-.3a2.9 2.9 0 0 0 .2-1.2v-1.8a1.8 1.8 0 0 1 .6-1.5 1.9 1.9 0 0 1 1.2-.4v.6a1 1 0 0 0-.7.2c-.2.1-.3.5-.3 1.1v1.8a3 3 0 0 1-.3 1.6c-.3.3-.5.4-.7.4s.4.1.7.4a3 3 0 0 1 .3 1.6v1.8c0 .6.1 1 .3 1.1a1 1 0 0 0 .7.2zM348.7 427l10.2 10.3-.7.6-10.2-10.3zM372.6 438.3v-11.8h.9v11.8zM375.6 438.3v-11.8h.9v11.8zM393.3 426.7h11.9v.8h-11.9zM405.3 426.7h11.9v.8h-11.9zM417.3 426.7h11.9v.8h-11.9zM429.4 438.1v-.6a.8.8 0 0 0 .7-.2c.2-.1.3-.5.3-1.1v-1.8a2.8 2.8 0 0 1 .4-1.6.4.4 0 1 0 0-.8 2.8 2.8 0 0 1-.4-1.6v-1.8c0-.6-.1-1-.3-1.1a.8.8 0 0 0-.7-.2v-.6a1.9 1.9 0 0 1 1.2.4 1.6 1.6 0 0 1 .7 1.5v1.8a3.5 3.5 0 0 0 .1 1.2c.1.2.3.3.7.3v1c-.4 0-.6.1-.7.3a3.5 3.5 0 0 0-.1 1.2v1.8a1.6 1.6 0 0 1-.7 1.5 1.9 1.9 0 0 1-1.2.4zM437.9 431.3h-1.5v-1.5h1.5zm0 4.5h-1.5v-1.4h1.5zM443.9 431.3h-1.5v-1.5h1.5zm0 4.5h-1.5v-1.4h1.5zM448 426.7h11.9v.8H448zM461.1 438.3v-11.8h.9v11.8zM488.2 437.5l-.7.5a9.3 9.3 0 0 1-2.4-2.5 6.3 6.3 0 0 1-.8-3.2 6.2 6.2 0 0 1 .8-3.1 9.5 9.5 0 0 1 2.4-2.6l.7.6a9.9 9.9 0 0 0-2.3 2.3 6.1 6.1 0 0 0-.7 2.8 5.8 5.8 0 0 0 .7 2.8 8.5 8.5 0 0 0 2.3 2.4zM489.7 432.4a4.8 4.8 0 0 1 1-3.1 3.1 3.1 0 0 1 5.2 0 4.8 4.8 0 0 1 1 3.1 5.1 5.1 0 0 1-1 3.2 3.2 3.2 0 0 1-5.2 0 5.1 5.1 0 0 1-1-3.2zm1.3 0a4.7 4.7 0 0 0 .7 2.6 1.8 1.8 0 0 0 3.2 0 4.7 4.7 0 0 0 .7-2.6 4.5 4.5 0 0 0-.7-2.6 1.9 1.9 0 0 0-3.2 0 4.7 4.7 0 0 0-.7 2.6zM498.4 437.5a10.2 10.2 0 0 0 2.3-2.4 5.8 5.8 0 0 0 .7-2.8 6.1 6.1 0 0 0-.7-2.8 12.4 12.4 0 0 0-2.3-2.3l.7-.6a9.5 9.5 0 0 1 2.4 2.6 6.2 6.2 0 0 1 .8 3.1 6.3 6.3 0 0 1-.8 3.2 9.3 9.3 0 0 1-2.4 2.5zM505.4 436.9l-1 1.5h-.4l.5-1.2h-.6v-1.4h1.5zM179.9 452.7v-11.8h.8v11.8zM187.4 445.7h-1.5v-1.5h1.5zm0 4.5h-1.5v-1.4h1.5zM193.4 445.7h-1.5v-1.5h1.5zm0 4.5h-1.5v-1.4h1.5zM199.4 445.7h-1.5v-1.5h1.5zm0 4.5h-1.5v-1.4h1.5zM205.4 445.7h-1.5v-1.5h1.5zm0 4.5h-1.5v-1.4h1.5zM210.6 452.7v-11.8h.9v11.8zM217.8 441.6l.7.2-5.3 10.1-.7-.2zM224.2 445.7h-1.5v-1.5h1.5zm0 4.5h-1.5v-1.4h1.5zM230.2 445.7h-1.5v-1.5h1.5zm0 4.5h-1.5v-1.4h1.5zM236.2 445.7h-1.5v-1.5h1.5zm0 4.5h-1.5v-1.4h1.5zM245.6 441.6l.6.2-5.3 10.1-.7-.2zM247.5 441.4l10.1 10.3-.7.6-10.1-10.3zM260.2 445.7h-1.5v-1.5h1.5zm0 4.5h-1.5v-1.4h1.5zM266.2 445.7h-1.5v-1.5h1.5zm0 4.5h-1.5v-1.4h1.5zM272.2 445.7h-1.5v-1.5h1.5zm0 4.5h-1.5v-1.4h1.5zM279.1 452.5a1.9 1.9 0 0 1-1.2-.4 1.8 1.8 0 0 1-.6-1.5v-1.8a2.9 2.9 0 0 0-.2-1.2c-.1-.2-.3-.3-.7-.3v-1c.4 0 .6-.1.7-.3a2.9 2.9 0 0 0 .2-1.2V443a1.8 1.8 0 0 1 .6-1.5 1.9 1.9 0 0 1 1.2-.4v.6a1 1 0 0 0-.7.2c-.2.1-.3.5-.3 1.1v1.8a3 3 0 0 1-.3 1.6c-.3.3-.5.4-.7.4s.4.1.7.4a3 3 0 0 1 .3 1.6v1.8c0 .6.1 1 .3 1.1a1 1 0 0 0 .7.2zM287.2 442.9h.2l1 .2c.1 0 .1.1 0 .2h-.1c-.2.9-.4 1.8-.7 2.8s-.8 2-1.2 2.8a11.2 11.2 0 0 1-2.3 2.9 2.7 2.7 0 0 0-.7-.8 7.9 7.9 0 0 0 2.1-2.4 13.1 13.1 0 0 0 1.2-2.7c.2-1 .4-1.7.5-2.1zM293.9 452.7v-11.8h.8v11.8zM301.7 451.2h-1.2v-8h-.4v-.9h1.6zM307 442.3h1v7.9h4v1h-5v-8.9zM313.1 452.5v-.6a1.2 1.2 0 0 0 .8-.2c.2-.1.3-.5.3-1.1v-1.8a3 3 0 0 1 .3-1.6c.3-.3.5-.4.7-.4s-.4-.1-.7-.4a3 3 0 0 1-.3-1.6V443c0-.6-.1-1-.3-1.1a1.2 1.2 0 0 0-.8-.2v-.6a2 2 0 0 1 1.3.4 1.8 1.8 0 0 1 .6 1.5v1.8a2.9 2.9 0 0 0 .2 1.2c.1.2.3.3.7.3v1c-.4 0-.6.1-.7.3a2.9 2.9 0 0 0-.2 1.2v1.8a1.8 1.8 0 0 1-.6 1.5 2 2 0 0 1-1.3.4zM317.9 445.7h-1.5v-1.5h1.5zm0 4.5h-1.5v-1.4h1.5zM320.2 451.6h-1.5v-1.4h1.5zM322.4 445.7h-1.5v-1.5h1.5zm0 4.5h-1.5v-1.4h1.5zM324.7 451.6h-1.5v-1.4h1.5zM326.9 445.7h-1.5v-1.5h1.5zm0 4.5h-1.5v-1.4h1.5zM328.5 441.4l10.1 10.3-.7.6-10.1-10.3zM340.5 441.4l10.1 10.3-.7.6-10.1-10.3zM351.3 451.7h3.6v.8h-3.6zM355 451.7h3.7v.8H355zM358.8 451.7h3.6v.8h-3.6zM365 445.3l2.1 2a10.7 10.7 0 0 1 1.4 1.6l1.2 1.7-1 .9a9.5 9.5 0 0 0-1.1-2 24.9 24.9 0 0 0-2-2.4l-1.3-.9zM373.2 451.2h-1v-8.9h1zM374.9 452.7v-11.8h.8v11.8zM386.3 447.3a2.2 2.2 0 0 0-.1-.9v-.2h8.8v1.1zM429 442.9h.2l1 .2v.2h-.2a16.4 16.4 0 0 1-.7 2.8 11.8 11.8 0 0 1-1.2 2.8 10.6 10.6 0 0 1-2.2 2.9 3 3 0 0 0-.8-.8 7.9 7.9 0 0 0 2.1-2.4 13.1 13.1 0 0 0 1.2-2.7 9.7 9.7 0 0 0 .5-2.1 3.2 3.2 0 0 0 .1-.9zM436.4 445.7h-1.5v-1.5h1.5zm0 4.5h-1.5v-1.4h1.5zM442.4 445.7h-1.5v-1.5h1.5zm0 4.5h-1.5v-1.4h1.5zM448.4 445.7h-1.5v-1.5h1.5zm0 4.5h-1.5v-1.4h1.5zM454.4 445.7h-1.5v-1.5h1.5zm0 4.5h-1.5v-1.4h1.5zM460.3 440.8h.9v11.9h-.9zM488.1 452.7v-11.8h.9v11.8zM503.8 440.8h.9v11.9h-.9zM179.8 455.2h.9v11.9h-.9zM188.2 460.1h-1.5v-1.5h1.5zm0 4.5h-1.5v-1.4h1.5zM194.2 460.1h-1.5v-1.5h1.5zm0 4.5h-1.5v-1.4h1.5zM200.2 460.1h-1.5v-1.5h1.5zm0 4.5h-1.5v-1.4h1.5zM206.2 460.1h-1.5v-1.5h1.5zm0 4.5h-1.5v-1.4h1.5zM213.1 466.9a1.9 1.9 0 0 1-1.2-.4 1.8 1.8 0 0 1-.6-1.5v-1.8a2.9 2.9 0 0 0-.2-1.2c-.1-.2-.3-.3-.7-.3v-1c.4 0 .6-.1.7-.3a2.9 2.9 0 0 0 .2-1.2v-1.8a1.8 1.8 0 0 1 .6-1.5 1.9 1.9 0 0 1 1.2-.4v.6a1 1 0 0 0-.7.2c-.2.1-.3.5-.3 1.1v1.8a3 3 0 0 1-.3 1.6c-.3.3-.5.4-.7.4s.4.1.7.4a3 3 0 0 1 .3 1.6v1.8c0 .6.1 1 .3 1.1a1 1 0 0 0 .7.2zM215.2 460.1h-1.5v-1.5h1.5zm0 4.5h-1.5v-1.4h1.5zM221.2 460.1h-1.5v-1.5h1.5zm0 4.5h-1.5v-1.4h1.5zM227.2 460.1h-1.5v-1.5h1.5zm0 4.5h-1.5v-1.4h1.5zM233.2 460.1h-1.5v-1.5h1.5zm0 4.5h-1.5v-1.4h1.5zM239.1 455.2h.8v11.9h-.8zM258.6 467.1v-11.8h.9v11.8zM262.4 460.1h-1.5v-1.5h1.5zm0 4.5h-1.5v-1.4h1.5zM268.4 460.1h-1.5v-1.5h1.5zm0 4.5h-1.5v-1.4h1.5zM274.4 460.1h-1.5v-1.5h1.5zm0 4.5h-1.5v-1.4h1.5zM279.7 455.8l10.2 10.3-.7.6-10.2-10.3zM290.5 466.2h12v.8h-12zM302.5 466.2h12v.8h-12zM316.4 465.7l-1 1.5h-.4l.5-1.2h-.6v-1.4h1.5zM317.7 466.3a8 8 0 0 0 2.2-2.4 4.9 4.9 0 0 0 .7-2.8 5.1 5.1 0 0 0-.7-2.8 9.2 9.2 0 0 0-2.2-2.3l.7-.6a10.7 10.7 0 0 1 2.3 2.6 5.3 5.3 0 0 1 .8 3.1 5.5 5.5 0 0 1-.8 3.2 10.5 10.5 0 0 1-2.3 2.5zM324.7 460.1h-1.5v-1.5h1.5zm0 4.5h-1.5v-1.4h1.5zM326.9 466h-1.4v-1.4h1.4zM329.2 460.1h-1.5v-1.5h1.5zm0 4.5h-1.5v-1.4h1.5zM331.4 466H330v-1.4h1.4zM333.7 460.1h-1.5v-1.5h1.5zm0 4.5h-1.5v-1.4h1.5zM335.9 466h-1.4v-1.4h1.4zM338.2 460.1h-1.5v-1.5h1.5zm0 4.5h-1.5v-1.4h1.5zM339.6 466.2v-9.8c-.1-.1-.1-.2.1-.2h.9v3.1a13.4 13.4 0 0 1 2.6 2.7c-.3.1-.5.4-.8.7a12.6 12.6 0 0 0-1.9-2.4v5.6zM344.5 464.4l.7-.5a8.6 8.6 0 0 1 1.4 1.8l-.8.5a5.7 5.7 0 0 0-1.3-1.8zM355.8 456.7l-2.5 8.9H352l-2.5-8.9h1.1l2 7h.1l1.9-7zM360.4 457.2c.7.1 1 .3.9.4l-.2.2a18.9 18.9 0 0 1-3.8 9.1l-.7-.3a19.1 19.1 0 0 0 3.8-9.4zm1.4-.3v-.8h2.2a19.6 19.6 0 0 0 4.1 10l-.7.3a20 20 0 0 1-4.1-9.5zM386.7 455.9h1.6l1.4 2.1h-.9zM391.8 463.7h9.7v1h-9.7zm1.6-5.7h6.5v1h-6.5zM403 463.7h9.7v1H403zm1.6-5.7h6.5v1h-6.5zM421.8 455.5h11.9v.8h-11.9zM433.8 455.5h11.9v.8h-11.9zM445.8 455.5h11.9v.8h-11.9zM488.1 455.2h.8v11.9h-.8zM503.9 467.1v-11.8h.8v11.8zM181.8 469.9h11.9v.8h-11.9zM193.8 469.9h11.9v.8h-11.9zM215.2 470.2l10.2 10.3-.7.6-10.2-10.3zM227.9 474.5h-1.5V473h1.5zm0 4.5h-1.5v-1.4h1.5zM233.9 474.5h-1.5V473h1.5zm0 4.5h-1.5v-1.4h1.5zM239.1 481.5v-11.8h.9v11.8zM261.3 469.9h11.9v.8h-11.9zM273.3 469.9h11.9v.8h-11.9zM291.9 481.3a2 2 0 0 1-1.3-.4 1.8 1.8 0 0 1-.6-1.5v-1.8a3.5 3.5 0 0 0-.1-1.2c-.1-.2-.4-.3-.8-.3v-1c.4 0 .7-.1.8-.3a3.5 3.5 0 0 0 .1-1.2v-1.8a1.8 1.8 0 0 1 .6-1.5 2 2 0 0 1 1.3-.4v.6a.8.8 0 0 0-.7.2c-.3.1-.4.5-.4 1.1v1.8a3 3 0 0 1-.3 1.6.5.5 0 1 0 0 .8 3 3 0 0 1 .3 1.6v1.8c0 .6.1 1 .4 1.1a.8.8 0 0 0 .7.2zM293.9 474.5h-1.5V473h1.5zm0 4.5h-1.5v-1.4h1.5zM296.2 480.4h-1.5V479h1.5zM298.4 474.5h-1.5V473h1.5zm0 4.5h-1.5v-1.4h1.5zM300.7 480.4h-1.5V479h1.5zM302.9 474.5h-1.5V473h1.5zm0 4.5h-1.5v-1.4h1.5zM305.2 480.4h-1.5V479h1.5zM307.4 474.5h-1.5V473h1.5zm0 4.5h-1.5v-1.4h1.5zM309.7 480.4h-1.5V479h1.5zM311.9 474.5h-1.5V473h1.5zm0 4.5h-1.5v-1.4h1.5zM314.2 480.4h-1.5V479h1.5zM316.4 474.5h-1.5V473h1.5zm0 4.5h-1.5v-1.4h1.5zM318.7 480.4h-1.5V479h1.5zM320.9 474.5h-1.5V473h1.5zm0 4.5h-1.5v-1.4h1.5zM323.2 480.4h-1.5V479h1.5zM325.4 474.5h-1.5V473h1.5zm0 4.5h-1.5v-1.4h1.5zM327.7 480.4h-1.5V479h1.5zM329.9 474.5h-1.5V473h1.5zm0 4.5h-1.5v-1.4h1.5zM332.2 480.4h-1.5V479h1.5zM334.4 474.5h-1.5V473h1.5zm0 4.5h-1.5v-1.4h1.5zM340.1 470.4l.6.2-5.3 10.1-.7-.2zM352.9 481.3v-.6a.8.8 0 0 0 .7-.2c.2-.1.3-.5.3-1.1v-1.8a2.8 2.8 0 0 1 .4-1.6.4.4 0 1 0 0-.8 2.8 2.8 0 0 1-.4-1.6v-1.8c0-.6-.1-1-.3-1.1a.8.8 0 0 0-.7-.2v-.6a1.9 1.9 0 0 1 1.2.4 1.6 1.6 0 0 1 .7 1.5v1.8a3.5 3.5 0 0 0 .1 1.2c.1.2.3.3.7.3v1c-.4 0-.6.1-.7.3a3.5 3.5 0 0 0-.1 1.2v1.8a1.6 1.6 0 0 1-.7 1.5 1.9 1.9 0 0 1-1.2.4zM358.6 481.3a1.9 1.9 0 0 1-1.2-.4 1.8 1.8 0 0 1-.6-1.5v-1.8a2.9 2.9 0 0 0-.2-1.2c-.1-.2-.3-.3-.7-.3v-1c.4 0 .6-.1.7-.3a2.9 2.9 0 0 0 .2-1.2v-1.8a1.8 1.8 0 0 1 .6-1.5 1.9 1.9 0 0 1 1.2-.4v.6a1 1 0 0 0-.7.2c-.2.1-.3.5-.3 1.1v1.8a3 3 0 0 1-.3 1.6c-.3.3-.5.4-.7.4s.4.1.7.4a3 3 0 0 1 .3 1.6v1.8c0 .6.1 1 .3 1.1a1 1 0 0 0 .7.2zM372 470.2l10.1 10.3-.7.6-10.1-10.3zM485.6 470.4l.6.2-5.3 10.1-.7-.2zM503.6 470.4l.6.2-5.3 10.1-.7-.2zM225.6 495.9v-11.8h.9v11.8zM229.4 488.9h-1.5v-1.5h1.5zm0 4.5h-1.5V492h1.5zM235.4 488.9h-1.5v-1.5h1.5zm0 4.5h-1.5V492h1.5zM240.7 484.6l10.2 10.3-.7.6-10.2-10.3zM251.5 495h12v.8h-12zM263.5 494.9h3.7v.8h-3.7zM292.5 484.6l10.1 10.3-.7.6-10.1-10.3zM305.2 488.9h-1.5v-1.5h1.5zm0 4.5h-1.5V492h1.5zM305.5 495h12v.8h-12zM319.4 494.5l-1 1.5h-.4l.5-1.2h-.6v-1.4h1.5zM321.7 488.9h-1.5v-1.5h1.5zm0 4.3l-.9 1.7h-.4l.4-1.5h-.6V492h1.5zM327 494.4h-.9l-1.5-2.6-1.4 2.6h-.9l1.8-3.3-1.8-3.1h.9l1.5 2.5 1.3-2.5h.9l-1.8 3.3zM331.9 484.9h.3l1 .5c.2 0 .2.1 0 .2h-.2a14.1 14.1 0 0 1-2.6 2.8l-1.3 1.3a.2.2 0 0 0 0 .3c0 .1.4.5 1.3 1.2l3.2 2.8a4.7 4.7 0 0 0-.9 1c-1.3-1.5-2.4-2.6-3.3-3.5a6.7 6.7 0 0 1-1.5-1.4c-.1-.2 0-.3 0-.5s.5-.7 1.4-1.5a9.7 9.7 0 0 0 2-2.2c.5-.5.7-.9.6-1zM334 495h12v.8h-12zM346 494.9h3.7v.8H346zM353.6 486c.7.1 1 .3 1 .4s-.1.2-.3.2a19.9 19.9 0 0 1-3.7 9.1l-.8-.3a18.2 18.2 0 0 0 3.8-9.4zm1.4-.3v-.8h2.2a18.8 18.8 0 0 0 4.2 10l-.7.3a19.2 19.2 0 0 1-4.2-9.5zM476.7 484.6l.7.6-10.2 10.3-.7-.6zM490.6 494.7l4.9-9.9a.5.5 0 0 1 .4-.3c.2 0 .3.1.5.3l4.9 9.9-.6.3-4.7-9.4h-.1l-4.7 9.4zM502 494.9h3.7v.8H502zM505.8 494.9h3.6v.8h-3.6zM228 499l10.1 10.3-.7.6-10.1-10.3zM240.7 503.3h-1.5v-1.5h1.5zm0 4.5h-1.5v-1.4h1.5zM246.7 503.3h-1.5v-1.5h1.5zm0 4.5h-1.5v-1.4h1.5zM252.7 503.3h-1.5v-1.5h1.5zm0 4.5h-1.5v-1.4h1.5zM258.7 503.3h-1.5v-1.5h1.5zm0 4.5h-1.5v-1.4h1.5zM264.7 503.3h-1.5v-1.5h1.5zm0 4.5h-1.5v-1.4h1.5zM269.9 510.3v-11.8h.8v11.8zM353.9 509.5l-.7.5a10.5 10.5 0 0 1-2.3-2.5 5.5 5.5 0 0 1-.8-3.2 5.3 5.3 0 0 1 .8-3.1 10.7 10.7 0 0 1 2.3-2.6l.7.6a9.2 9.2 0 0 0-2.2 2.3 5.1 5.1 0 0 0-.7 2.8 4.9 4.9 0 0 0 .7 2.8 8 8 0 0 0 2.2 2.4zM355.4 504.4a5.5 5.5 0 0 1 1-3.1 3.3 3.3 0 0 1 2.6-1.4 3.3 3.3 0 0 1 2.7 1.4 5.5 5.5 0 0 1 1 3.1 5.8 5.8 0 0 1-1 3.2 3.2 3.2 0 0 1-2.7 1.3 3.2 3.2 0 0 1-2.6-1.3 5.8 5.8 0 0 1-1-3.2zm1.4 0a4 4 0 0 0 .7 2.6 1.7 1.7 0 0 0 1.5 1 1.8 1.8 0 0 0 1.6-1 4 4 0 0 0 .7-2.6 3.8 3.8 0 0 0-.7-2.6 1.9 1.9 0 0 0-1.6-.9 1.8 1.8 0 0 0-1.5.9 4 4 0 0 0-.7 2.6zM364.2 509.5a8 8 0 0 0 2.2-2.4 4.9 4.9 0 0 0 .7-2.8 5.1 5.1 0 0 0-.7-2.8 9.2 9.2 0 0 0-2.2-2.3l.7-.6a10.7 10.7 0 0 1 2.3 2.6 5.3 5.3 0 0 1 .8 3.1 5.5 5.5 0 0 1-.8 3.2 10.5 10.5 0 0 1-2.3 2.5zM370 507.6l.7-.5a8.6 8.6 0 0 1 1.4 1.8l-.8.5a5.7 5.7 0 0 0-1.3-1.8zM462.4 499l.7.6-10.1 10.3-.7-.6zM468.7 509.5l-.7.5a9.3 9.3 0 0 1-2.4-2.5 6.3 6.3 0 0 1-.8-3.2 6.2 6.2 0 0 1 .8-3.1 9.5 9.5 0 0 1 2.4-2.6l.7.6a9.9 9.9 0 0 0-2.3 2.3 6.1 6.1 0 0 0-.7 2.8 5.8 5.8 0 0 0 .7 2.8 8.5 8.5 0 0 0 2.3 2.4zM470.2 504.4a4.8 4.8 0 0 1 1-3.1 3.1 3.1 0 0 1 5.2 0 4.8 4.8 0 0 1 1 3.1 5.1 5.1 0 0 1-1 3.2 3.2 3.2 0 0 1-5.2 0 5.1 5.1 0 0 1-1-3.2zm1.3 0a4.7 4.7 0 0 0 .7 2.6 1.8 1.8 0 0 0 3.2 0 4.7 4.7 0 0 0 .7-2.6 4.5 4.5 0 0 0-.7-2.6 1.9 1.9 0 0 0-3.2 0 4.7 4.7 0 0 0-.7 2.6zM478.9 509.5a10.2 10.2 0 0 0 2.3-2.4 5.8 5.8 0 0 0 .7-2.8 6.1 6.1 0 0 0-.7-2.8 12.4 12.4 0 0 0-2.3-2.3l.7-.6a9.5 9.5 0 0 1 2.4 2.6 6.2 6.2 0 0 1 .8 3.1 6.3 6.3 0 0 1-.8 3.2 9.3 9.3 0 0 1-2.4 2.5zM489.3 499.2l.7.2-5.3 10.1-.7-.2zM501.6 500.6l1.1-1.7h.4l-.6 1.4h.5v1.4h-1.4zM506.2 503.3h-1.5v-1.5h1.5zm0 4.5h-1.5v-1.4h1.5zM508.4 509.2H507v-1.4h1.4zM510.7 503.3h-1.5v-1.5h1.5zm0 4.5h-1.5v-1.4h1.5zM512.9 509.2h-1.4v-1.4h1.4zM515.2 503.3h-1.5v-1.5h1.5zm0 4.5h-1.5v-1.4h1.5zM518 502.9l2.1 2 1.4 1.6 1.2 1.7-1 .9a9.5 9.5 0 0 0-1.1-2 24.9 24.9 0 0 0-2-2.4l-1.3-.9zM349 356.9l2.1 2 1.4 1.6 1.2 1.7-1 .9a9.5 9.5 0 0 0-1.1-2 24.9 24.9 0 0 0-2-2.4l-1.3-.9zM239.1 524.7v-11.8h.9v11.8zM246.7 517.7h-1.5v-1.5h1.5zm0 4.5h-1.5v-1.4h1.5zM252.7 517.7h-1.5v-1.5h1.5zm0 4.5h-1.5v-1.4h1.5zM258.7 517.7h-1.5v-1.5h1.5zm0 4.5h-1.5v-1.4h1.5zM264.7 517.7h-1.5v-1.5h1.5zm0 4.5h-1.5v-1.4h1.5zM269.9 524.7v-11.8h.8v11.8zM357 513.4l10.1 10.3-.7.6-10.1-10.3zM377.2 513.4l10.2 10.3-.7.6-10.2-10.3zM388 523.7h3.7v.8H388zM391.8 523.7h3.6v.8h-3.6zM395.5 523.7h3.7v.8h-3.7zM399.3 523.8h11.9v.8h-11.9zM411.3 523.8h11.9v.8h-11.9zM423.3 523.7h3.6v.8h-3.6zM427 523.7h3.7v.8H427zM430.8 523.7h3.6v.8h-3.6zM436.4 523.3l-1 1.5h-.4l.5-1.2h-.6v-1.4h1.5zM447.4 513.4l.7.6-10.1 10.3-.7-.6zM479.7 513.4l.7.6-10.2 10.3-.7-.6zM486.2 524.5a5.2 5.2 0 0 1-1.8-.3c-.5-.2-.7-.7-.7-1.6v-1.8a2.9 2.9 0 0 0-.2-1.2c-.1-.2-.5-.3-1.1-.3v-1c.6 0 1-.1 1.1-.3a2.9 2.9 0 0 0 .2-1.2V515c0-.9.2-1.4.7-1.6a5.2 5.2 0 0 1 1.8-.3v.6a1.6 1.6 0 0 0-1 .2c-.2.1-.4.5-.4 1.1v1.8a2.2 2.2 0 0 1-.4 1.6.5.5 0 1 0 0 .8 2.2 2.2 0 0 1 .4 1.6v1.8c0 .6.2 1 .4 1.1a1.6 1.6 0 0 0 1 .2zM488.9 517.7h-1.5v-1.5h1.5zm0 4.5h-1.5v-1.4h1.5zM490.5 513.4l10.1 10.3-.7.6-10.1-10.3zM501.3 523.7h3.6v.8h-3.6zM505.1 524.5v-.6a1.2 1.2 0 0 0 .8-.2c.2-.1.3-.5.3-1.1v-1.8a3 3 0 0 1 .3-1.6c.3-.3.5-.4.7-.4s-.4-.1-.7-.4a3 3 0 0 1-.3-1.6V515c0-.6-.1-1-.3-1.1a1.2 1.2 0 0 0-.8-.2v-.6a2 2 0 0 1 1.3.4 1.8 1.8 0 0 1 .6 1.5v1.8a2.9 2.9 0 0 0 .2 1.2c.1.2.3.3.7.3v1c-.4 0-.6.1-.7.3a2.9 2.9 0 0 0-.2 1.2v1.8a1.8 1.8 0 0 1-.6 1.5 2 2 0 0 1-1.3.4zM509.9 517.7h-1.5v-1.5h1.5zm0 4.5h-1.5v-1.4h1.5zM512.2 523.6h-1.5v-1.4h1.5zM514.4 517.7h-1.5v-1.5h1.5zm0 4.5h-1.5v-1.4h1.5zM516.7 523.6h-1.5v-1.4h1.5zM518.9 517.7h-1.5v-1.5h1.5zm0 4.5h-1.5v-1.4h1.5zM521.2 523.6h-1.5v-1.4h1.5zM521.6 524.5v-.6a1.2 1.2 0 0 0 .8-.2c.2-.1.3-.5.3-1.1v-1.8a3 3 0 0 1 .3-1.6c.3-.3.5-.4.7-.4s-.4-.1-.7-.4a3 3 0 0 1-.3-1.6V515c0-.6-.1-1-.3-1.1a1.2 1.2 0 0 0-.8-.2v-.6a2 2 0 0 1 1.3.4 1.8 1.8 0 0 1 .6 1.5v1.8a2.9 2.9 0 0 0 .2 1.2c.1.2.3.3.7.3v1c-.4 0-.6.1-.7.3a2.9 2.9 0 0 0-.2 1.2v1.8a1.8 1.8 0 0 1-.6 1.5 2 2 0 0 1-1.3.4zM243.3 527.5h11.9v.8h-11.9zM255.3 527.5h11.9v.8h-11.9zM370.7 538.9a5.2 5.2 0 0 1-1.8-.3c-.5-.2-.7-.7-.7-1.6v-1.8a2.9 2.9 0 0 0-.2-1.2c-.1-.2-.5-.3-1.1-.3v-1c.6 0 1-.1 1.1-.3a2.9 2.9 0 0 0 .2-1.2v-1.8c0-.9.2-1.4.7-1.6a5.2 5.2 0 0 1 1.8-.3v.6a1.6 1.6 0 0 0-1 .2c-.2.1-.4.5-.4 1.1v1.8a2.2 2.2 0 0 1-.4 1.6.5.5 0 1 0 0 .8 2.2 2.2 0 0 1 .4 1.6v1.8c0 .6.2 1 .4 1.1a1.6 1.6 0 0 0 1 .2zM373.4 532.1h-1.5v-1.5h1.5zm0 4.5h-1.5v-1.4h1.5zM375.7 538h-1.5v-1.4h1.5zM377.9 532.1h-1.5v-1.5h1.5zm0 4.5h-1.5v-1.4h1.5zM380.2 538h-1.5v-1.4h1.5zM381.3 536.4l.6-.5a14.3 14.3 0 0 1 1.5 1.8l-.8.5a7.8 7.8 0 0 0-1.3-1.8zM385.8 538.1h3.6v.8h-3.6zM406.4 538.3l-.7.5a10.5 10.5 0 0 1-2.3-2.5 5.5 5.5 0 0 1-.8-3.2 5.3 5.3 0 0 1 .8-3.1 10.7 10.7 0 0 1 2.3-2.6l.7.6a9.2 9.2 0 0 0-2.2 2.3 5.1 5.1 0 0 0-.7 2.8 4.9 4.9 0 0 0 .7 2.8 8 8 0 0 0 2.2 2.4zM411.9 533.2a4.5 4.5 0 0 1 1.2-3.1 4 4 0 0 1 3.1-1.3 3.8 3.8 0 0 1 3 1.3 4.5 4.5 0 0 1 1.2 3.1 4.5 4.5 0 0 1-1.2 3.2 3.8 3.8 0 0 1-3 1.3 4 4 0 0 1-3.1-1.3 4.7 4.7 0 0 1-1.2-3.2zm1.1 0a3.9 3.9 0 0 0 1 2.7 3.3 3.3 0 0 0 2.2.9 2.9 2.9 0 0 0 2.1-.9 3.8 3.8 0 0 0 .9-2.7 3.6 3.6 0 0 0-.9-2.6 2.9 2.9 0 0 0-2.1-.9 3.3 3.3 0 0 0-2.2.9 3.6 3.6 0 0 0-1 2.6zM425.7 538.3a8 8 0 0 0 2.2-2.4 4.9 4.9 0 0 0 .7-2.8 5.1 5.1 0 0 0-.7-2.8 9.2 9.2 0 0 0-2.2-2.3l.7-.6a10.7 10.7 0 0 1 2.3 2.6 5.3 5.3 0 0 1 .8 3.1 5.5 5.5 0 0 1-.8 3.2 10.5 10.5 0 0 1-2.3 2.5zM447.3 538.1h3.6v.8h-3.6zM452.9 537.7l-1 1.5h-.4l.5-1.2h-.6v-1.4h1.5zM463.9 527.8l.7.6-10.1 10.3-.7-.6zM495.2 537.6h-1.3l-1.8-2.6-1.5 2.6h-1.2l2.1-3.4-2-3h1.3l1.6 2.4 1.3-2.4h1.2l-1.9 3.3zM497.1 532.1h-1.4v-1.5h1.4zm0 4.5h-1.4v-1.4h1.4zM497.5 538.2h11.9v.8h-11.9zM511.4 537.7l-1 1.5h-.4l.5-1.2h-.6v-1.4h1.5zM513.6 532.1h-1.4v-1.5h1.4zm0 4.3l-.8 1.7h-.4l.4-1.5h-.6v-1.4h1.4zM520.5 529.2c-.1-.2 0-.2.2-.2l1.2.3c.1 0 .1.1 0 .2l-.2.2a9.9 9.9 0 0 1-.9 2.8 8.9 8.9 0 0 1-1.9 3.1 13.1 13.1 0 0 1-4 2.5 4.1 4.1 0 0 0-.7-1.1 6.8 6.8 0 0 0 3.6-1.8 10 10 0 0 0 2-2.9 16.4 16.4 0 0 0 .7-2.3zM370.9 553.3v-.6a.8.8 0 0 0 .7-.2c.2-.1.3-.5.3-1.1v-1.8a2.8 2.8 0 0 1 .4-1.6.4.4 0 1 0 0-.8 2.8 2.8 0 0 1-.4-1.6v-1.8c0-.6-.1-1-.3-1.1a.8.8 0 0 0-.7-.2v-.6a1.9 1.9 0 0 1 1.2.4 1.6 1.6 0 0 1 .7 1.5v1.8a3.5 3.5 0 0 0 .1 1.2c.1.2.3.3.7.3v1c-.4 0-.6.1-.7.3a3.5 3.5 0 0 0-.1 1.2v1.8a1.6 1.6 0 0 1-.7 1.5 1.9 1.9 0 0 1-1.2.4zM373.8 541.9h11.9v.8h-11.9zM396.4 549.1h-1V542h3.7v.9h-2.7zM400 541.9h11.9v.8H400zM412 541.9h11.9v.8H412zM424 541.9h11.9v.8H424zM490.6 553.3a1.9 1.9 0 0 1-1.2-.4 1.8 1.8 0 0 1-.6-1.5v-1.8a2.9 2.9 0 0 0-.2-1.2c-.1-.2-.3-.3-.7-.3v-1c.4 0 .6-.1.7-.3a2.9 2.9 0 0 0 .2-1.2v-1.8a1.8 1.8 0 0 1 .6-1.5 1.9 1.9 0 0 1 1.2-.4v.6a1 1 0 0 0-.7.2c-.2.1-.3.5-.3 1.1v1.8a3 3 0 0 1-.3 1.6c-.3.3-.5.4-.7.4s.4.1.7.4a3 3 0 0 1 .3 1.6v1.8c0 .6.1 1 .3 1.1a1 1 0 0 0 .7.2zM515.6 553.3v-.6a1.2 1.2 0 0 0 .8-.2c.2-.1.3-.5.3-1.1v-1.8a3 3 0 0 1 .3-1.6c.3-.3.5-.4.7-.4s-.4-.1-.7-.4a3 3 0 0 1-.3-1.6v-1.8c0-.6-.1-1-.3-1.1a1.2 1.2 0 0 0-.8-.2v-.6a2 2 0 0 1 1.3.4 1.8 1.8 0 0 1 .6 1.5v1.8a2.9 2.9 0 0 0 .2 1.2c.1.2.3.3.7.3v1c-.4 0-.6.1-.7.3a2.9 2.9 0 0 0-.2 1.2v1.8a1.8 1.8 0 0 1-.6 1.5 2 2 0 0 1-1.3.4zM372.1 567.7a1.9 1.9 0 0 1-1.2-.4 1.8 1.8 0 0 1-.6-1.5V564a2.9 2.9 0 0 0-.2-1.2c-.1-.2-.3-.3-.7-.3v-1c.4 0 .6-.1.7-.3a2.9 2.9 0 0 0 .2-1.2v-1.8a1.8 1.8 0 0 1 .6-1.5 1.9 1.9 0 0 1 1.2-.4v.6a1 1 0 0 0-.7.2c-.2.1-.3.5-.3 1.1v1.8a3 3 0 0 1-.3 1.6c-.3.3-.5.4-.7.4s.4.1.7.4a3 3 0 0 1 .3 1.6v1.8c0 .6.1 1 .3 1.1a1 1 0 0 0 .7.2zM396.4 567.7v-.6a.8.8 0 0 0 .7-.2c.2-.1.3-.5.3-1.1V564a2.8 2.8 0 0 1 .4-1.6.4.4 0 1 0 0-.8 2.8 2.8 0 0 1-.4-1.6v-1.8c0-.6-.1-1-.3-1.1a.8.8 0 0 0-.7-.2v-.6a1.9 1.9 0 0 1 1.2.4 1.6 1.6 0 0 1 .7 1.5v1.8a3.5 3.5 0 0 0 .1 1.2c.1.2.3.3.7.3v1c-.4 0-.6.1-.7.3a3.5 3.5 0 0 0-.1 1.2v1.8a1.6 1.6 0 0 1-.7 1.5 1.9 1.9 0 0 1-1.2.4zM492.3 565.2l.6-.5a14.3 14.3 0 0 1 1.5 1.8l-.8.5a7.8 7.8 0 0 0-1.3-1.8zM496.8 567h11.9v.8h-11.9zM515.2 558c0-.2.1-.2.2-.2l1.3.3c.1 0 .1.1 0 .2l-.2.2a9.9 9.9 0 0 1-.9 2.8 9.2 9.2 0 0 1-2 3.1 11 11 0 0 1-4 2.5 2.4 2.4 0 0 0-.6-1.1 6.5 6.5 0 0 0 3.5-1.8 7.2 7.2 0 0 0 2-2.9 6.1 6.1 0 0 0 .7-2.3c.1-.5.1-.8 0-.8zM374.4 572.1v-1.2h1.5v1.5h-.6l.3 1.5h-.4zM378 576.9a2.2 2.2 0 0 0-.1-.9v-.2h8.8v1.1zM393.6 572.1l-1 1.8h-.4l.6-1.5h-.6v-1.5h1.4zM395.1 573.6l.6-2.5h1.4l-1.5 2.5z" transform="translate(-179.7 -95.5)"/></svg>